<?xml version="1.0" standalone="no"?>
<!DOCTYPE svg PUBLIC "-//W3C//DTD SVG 20010904//EN"
 "http://www.w3.org/TR/2001/REC-SVG-20010904/DTD/svg10.dtd">
<svg version="1.0" xmlns="http://www.w3.org/2000/svg"
 width="600.000000pt" height="663.000000pt" viewBox="0 0 600.000000 663.000000"
 preserveAspectRatio="xMidYMid meet">
<g transform="translate(0.000000,663.000000) scale(0.100000,-0.100000)"
fill="#ddd" stroke="none">
<path d="M1452 6469 c-14 -5 -20 -14 -16 -24 4 -9 12 -14 18 -12 6 3 26 -2 45
-9 41 -17 105 -18 133 -3 30 16 85 -15 103 -57 13 -31 61 -64 94 -64 9 0 24
-7 34 -14 14 -11 16 -19 8 -33 -5 -10 -12 -25 -15 -35 -2 -9 -18 -19 -34 -23
-23 -5 -29 -10 -25 -26 7 -27 27 -24 61 11 17 17 34 30 39 30 4 0 14 9 21 20
17 27 22 26 89 -19 63 -42 121 -96 168 -156 29 -35 32 -37 53 -24 22 13 26 11
63 -28 21 -23 39 -49 39 -58 0 -18 -26 -20 -33 -2 -3 9 -7 9 -17 0 -19 -18 -4
-47 20 -39 11 3 28 8 38 11 10 4 44 -12 87 -41 39 -25 94 -58 124 -71 l53 -25
-6 -41 c-7 -44 12 -77 46 -77 14 0 18 8 18 40 0 22 2 40 4 40 2 0 21 -7 42
-16 42 -18 43 -14 -19 -59 -15 -10 -16 -16 -6 -38 13 -29 47 -47 90 -47 17 0
42 -9 56 -20 14 -11 32 -20 39 -20 8 0 14 -11 14 -25 0 -28 15 -34 24 -9 10
25 7 34 -9 34 -8 0 -18 12 -21 26 -7 26 -38 44 -79 44 -35 0 -39 27 -7 47 15
9 29 19 32 21 8 6 -25 22 -48 22 -14 0 -21 4 -16 11 11 18 66 4 120 -30 53
-34 67 -56 53 -83 -8 -14 -3 -18 28 -23 71 -12 71 -14 19 -61 l-49 -45 13 -55
c11 -43 11 -60 2 -72 -7 -10 -21 -33 -31 -53 -11 -19 -27 -41 -35 -48 -9 -8
-16 -21 -16 -29 0 -14 -4 -13 -21 4 -13 14 -22 39 -26 78 -3 31 -10 59 -14 62
-19 11 -8 24 20 24 39 0 53 19 42 56 -17 55 -24 65 -60 84 -37 18 -38 18 -78
-2 l-40 -20 18 -62 c28 -92 22 -144 -14 -130 -12 4 -17 1 -17 -13 0 -27 31
-53 64 -53 21 0 30 -7 41 -34 16 -38 31 -46 82 -46 26 0 36 5 40 20 9 32 20
23 32 -27 7 -27 19 -63 27 -81 8 -18 14 -39 14 -47 0 -8 4 -15 9 -15 5 0 12
-28 15 -63 7 -58 10 -65 39 -80 31 -17 34 -17 80 3 51 23 64 53 25 63 -21 6
-21 7 -3 27 16 17 17 23 5 45 -10 18 -17 22 -29 15 -10 -5 -23 -5 -32 0 -7 5
-21 7 -30 5 -12 -4 -18 3 -22 25 -4 19 -16 34 -31 41 -21 10 -23 15 -15 36 14
38 11 85 -8 105 -17 19 -16 23 16 83 31 60 32 65 17 87 -25 36 -20 63 20 93
33 25 35 30 29 64 -4 20 -11 41 -15 46 -10 12 -40 95 -40 112 0 6 16 28 36 48
39 41 34 58 -16 53 -20 -3 -26 -9 -28 -37 -3 -30 -6 -33 -33 -29 -32 5 -37 -3
-14 -22 15 -13 20 -42 9 -53 -4 -3 -21 5 -39 18 -17 14 -39 25 -48 25 -28 0
-22 49 8 60 18 7 25 17 25 35 0 17 7 28 23 34 12 5 31 18 41 30 12 13 31 21
53 21 18 0 33 5 33 10 0 6 5 10 10 10 6 0 10 -14 10 -30 0 -24 6 -33 26 -40
14 -6 27 -10 29 -10 3 0 2 20 -1 44 -6 39 -3 48 19 70 36 36 112 37 151 1 14
-13 26 -29 26 -35 0 -5 13 -10 28 -10 22 0 30 -7 39 -31 7 -17 9 -37 6 -45 -3
-9 1 -14 12 -14 25 0 115 -101 115 -129 0 -13 -11 -39 -25 -57 -38 -49 -34
-67 13 -59 30 5 44 2 64 -14 14 -12 31 -21 37 -21 13 0 15 26 2 34 -4 3 -10
36 -13 74 -5 69 -23 110 -63 144 -11 10 -25 17 -32 18 -6 0 -22 14 -35 30 -13
17 -35 45 -50 62 -16 18 -28 36 -28 40 0 4 -15 14 -32 22 -18 7 -44 24 -57 36
-16 16 -38 24 -70 26 -25 1 -64 5 -86 9 -32 6 -52 2 -97 -19 -67 -31 -170 -35
-243 -11 -25 9 -50 13 -55 10 -19 -12 -10 -36 20 -53 18 -10 28 -23 25 -31 -3
-8 2 -33 11 -57 12 -32 14 -52 7 -81 -10 -40 -8 -40 -92 -31 -33 4 -37 22 -10
46 11 11 18 26 14 32 -4 6 -1 18 6 26 10 13 10 17 -2 25 -37 24 -69 5 -69 -41
0 -20 -25 -50 -41 -50 -6 0 -32 23 -60 50 -38 38 -57 50 -80 50 -36 0 -89 28
-89 47 0 18 50 16 70 -2 22 -20 105 -25 105 -5 0 8 -14 17 -33 21 -19 4 -39
12 -45 18 -6 6 -26 11 -45 11 -24 0 -49 12 -92 45 -32 25 -61 45 -64 45 -3 0
-14 7 -23 16 -10 8 -38 30 -62 47 -24 18 -62 46 -85 64 -22 17 -44 32 -48 32
-12 2 -130 73 -147 90 -19 18 -140 81 -156 81 -6 0 -26 14 -45 32 -34 30 -37
31 -140 33 -58 1 -116 -2 -128 -6z"/>
<path d="M1363 6387 c-20 -9 -22 -17 -22 -84 0 -63 4 -82 25 -114 13 -21 28
-39 33 -39 14 0 71 -81 71 -101 0 -9 -28 -36 -62 -60 -35 -23 -71 -52 -81 -63
-41 -46 -34 -118 16 -180 53 -63 187 -191 254 -241 33 -25 72 -63 87 -86 16
-23 42 -47 61 -55 19 -8 42 -25 50 -38 14 -21 63 -51 71 -43 6 5 -19 77 -27
77 -14 0 -59 89 -59 117 -1 31 -31 73 -53 73 -12 0 -27 39 -27 71 0 26 113 -7
123 -36 4 -8 15 -15 26 -15 27 0 34 -15 16 -30 -13 -10 -14 -25 -9 -73 4 -33
13 -72 20 -86 8 -14 14 -30 14 -35 0 -5 22 -30 49 -56 47 -45 49 -46 70 -29
31 26 26 54 -14 79 -42 26 -48 60 -10 60 30 0 61 -32 87 -87 22 -49 44 -55 58
-17 6 14 19 28 30 31 11 3 20 10 20 15 0 19 -21 48 -35 48 -7 0 -16 4 -19 9
-8 13 27 91 42 91 6 0 15 1 19 1 11 2 44 -61 38 -71 -9 -15 26 -60 46 -60 17
0 19 5 13 43 -4 33 -3 38 6 25 14 -22 36 -23 44 -3 8 21 -3 43 -25 50 -25 8
-24 32 1 40 26 8 26 41 -1 55 -16 9 -28 9 -50 -1 -29 -11 -29 -12 -9 -26 11
-8 20 -18 20 -24 0 -14 -37 -11 -54 6 -34 34 -107 -3 -99 -50 4 -18 1 -25 -11
-25 -11 0 -16 9 -16 28 0 31 -36 72 -62 72 -30 0 -75 25 -102 57 -29 34 -47
46 -133 87 -29 14 -57 36 -64 48 -15 29 -39 47 -61 48 -24 0 -23 -29 2 -60 26
-33 25 -55 -2 -74 -29 -20 -48 -20 -77 0 l-23 17 26 24 c14 13 26 27 26 32 0
14 -34 38 -62 45 -18 4 -30 15 -34 31 -8 31 1 44 24 38 13 -3 31 9 59 41 40
45 42 46 100 46 45 0 64 -4 76 -18 22 -24 22 -78 0 -91 -14 -8 -15 -12 -4 -25
16 -20 35 -20 50 -2 8 10 22 11 54 5 23 -4 60 -8 83 -9 34 0 43 -4 52 -25 17
-38 15 -63 -8 -75 -23 -12 -27 -30 -6 -30 8 0 18 -9 21 -20 3 -11 16 -25 27
-31 17 -9 24 -8 37 8 17 21 62 43 87 43 9 0 22 6 30 14 12 13 18 13 41 1 32
-17 37 -14 28 14 -3 12 -23 30 -44 40 -28 15 -40 29 -49 57 -17 58 -1 61 62
14 38 -29 61 -40 75 -35 24 7 110 -13 132 -31 16 -14 61 -19 72 -8 10 10 -85
104 -122 120 -48 20 -64 18 -56 -6 6 -20 6 -21 -31 -5 -21 8 -43 20 -51 26 -9
8 -17 8 -26 1 -25 -21 -147 24 -147 53 0 9 10 15 23 16 12 0 31 4 42 8 18 7
17 9 -13 25 -23 12 -37 14 -51 7 -24 -13 -31 -5 -31 33 0 23 -9 38 -34 59 -19
15 -43 27 -52 27 -10 0 -25 7 -35 16 -25 22 -42 9 -34 -27 6 -25 4 -29 -14
-29 -12 0 -21 4 -21 9 0 5 -25 21 -56 36 -61 29 -144 99 -144 122 0 9 -8 13
-22 11 -18 -2 -24 -11 -26 -35 -2 -18 -6 -33 -9 -33 -23 0 -94 28 -120 48 -27
20 -32 30 -30 60 3 48 -23 50 -36 3 l-8 -34 -22 22 c-18 18 -20 24 -9 41 13
22 17 86 5 93 -5 3 -18 0 -30 -6z m208 -388 c49 -34 34 -89 -28 -109 -21 -7
-48 -21 -60 -32 -22 -21 -64 -21 -70 -1 -3 7 7 24 20 37 14 14 29 36 33 48 5
19 59 76 72 78 2 0 17 -9 33 -21z m396 -51 c49 -44 103 -120 103 -143 0 -31
-24 -38 -46 -14 -9 10 -21 19 -26 19 -21 0 -98 44 -98 56 0 8 -9 31 -20 51
-11 21 -20 44 -20 52 0 22 77 7 107 -21z m-447 -182 c0 -22 -16 -28 -29 -12
-9 11 -9 15 1 19 22 9 28 8 28 -7z"/>
<path d="M1490 6245 c0 -8 7 -15 15 -15 8 0 15 7 15 15 0 8 -7 15 -15 15 -8 0
-15 -7 -15 -15z"/>
<path d="M1686 6252 c-6 -10 36 -32 60 -32 9 0 14 7 12 18 -3 18 -62 30 -72
14z"/>
<path d="M2661 5986 c-6 -7 -8 -21 -5 -30 5 -12 0 -19 -15 -23 -25 -6 -27 -18
-5 -27 21 -8 94 50 94 75 0 14 -7 19 -29 19 -16 0 -34 -6 -40 -14z"/>
<path d="M2340 5696 c0 -7 7 -19 15 -26 20 -16 38 -1 29 23 -7 20 -44 23 -44
3z"/>
<path d="M2453 5674 c-9 -25 17 -44 63 -44 48 0 64 14 41 37 -20 21 -97 25
-104 7z"/>
<path d="M3285 5628 c-53 -63 -60 -89 -45 -168 14 -76 8 -118 -31 -192 -24
-46 -24 -58 -1 -58 26 0 54 34 92 113 18 37 42 80 55 95 12 15 33 47 47 72 47
86 43 124 -7 64 -31 -37 -49 -43 -63 -18 -9 15 -5 40 13 102 11 35 -28 28 -60
-10z"/>
<path d="M2408 5601 c-22 -22 -23 -57 -3 -65 20 -7 19 -35 -1 -57 -10 -11 -13
-25 -9 -39 7 -21 9 -21 41 16 l33 39 27 -26 c33 -33 26 -69 -12 -69 -28 0 -64
-16 -64 -28 0 -16 74 -28 107 -17 44 15 48 21 29 49 -9 14 -16 36 -16 49 0 13
-13 43 -30 65 -16 23 -30 48 -30 55 0 16 -32 47 -46 46 -5 0 -17 -8 -26 -18z"/>
<path d="M2562 5583 c-23 -26 -26 -53 -7 -60 6 -2 19 13 29 32 25 45 10 64
-22 28z"/>
<path d="M3584 5499 c-4 -7 -20 -9 -40 -6 -28 5 -37 1 -59 -24 -14 -17 -25
-34 -25 -39 0 -5 -11 -26 -25 -46 -20 -29 -25 -49 -25 -95 0 -50 -3 -60 -22
-70 -37 -18 -128 -112 -128 -131 0 -9 -10 -24 -22 -32 -22 -15 -22 -16 -3 -30
19 -13 18 -15 -13 -42 -35 -31 -39 -49 -17 -77 13 -18 14 -18 24 1 7 13 18 18
29 15 12 -3 22 2 26 12 8 21 0 35 -20 35 -8 0 -14 9 -14 21 0 18 4 20 28 14
42 -10 96 -55 83 -68 -17 -17 -13 -57 5 -57 13 0 15 7 11 30 -6 25 -3 30 14
30 11 0 22 -7 25 -15 16 -41 73 12 59 55 -3 10 1 37 10 61 8 24 15 55 15 68 0
37 22 103 37 108 17 7 63 -48 60 -72 -1 -14 -11 -21 -30 -23 -31 -4 -34 -27
-5 -46 14 -8 23 -5 43 14 22 21 28 22 35 10 14 -21 13 -23 -20 -55 -17 -16
-30 -39 -30 -52 0 -23 -21 -64 -47 -91 -7 -7 -13 -23 -13 -34 0 -26 -67 -134
-98 -159 -14 -10 -33 -19 -43 -19 -20 0 -49 47 -49 80 0 11 -4 20 -9 20 -4 0
-21 10 -36 22 -16 12 -40 22 -54 23 -21 0 -25 4 -23 23 7 47 -61 7 -74 -45
-11 -44 -94 -74 -94 -34 0 21 -19 31 -59 31 -28 0 -61 26 -61 49 0 16 -29 71
-46 89 -8 7 -14 31 -14 53 0 33 4 41 26 49 45 18 22 35 -55 40 -76 5 -78 7
-112 67 -11 19 -29 33 -57 41 -38 12 -42 16 -48 52 -4 22 -8 40 -11 40 -2 0
-15 -8 -30 -17 -24 -16 -26 -16 -39 2 -8 10 -14 25 -14 32 0 7 -4 13 -10 13
-5 0 -10 -9 -10 -19 0 -26 -15 -34 -70 -41 -44 -5 -45 -6 -48 -42 -3 -30 -8
-39 -27 -44 -25 -6 -65 10 -65 26 0 6 -6 10 -14 10 -23 0 -16 -88 9 -106 16
-12 21 -12 30 -1 29 38 84 26 109 -24 15 -29 15 -35 1 -56 -20 -29 -37 -29
-66 1 l-23 24 -23 -25 c-19 -20 -22 -31 -17 -59 8 -43 -9 -51 -62 -29 l-39 16
27 24 c15 12 30 24 35 26 5 2 7 29 5 60 l-4 56 -61 6 c-48 4 -69 1 -99 -14
-73 -37 -138 -21 -138 36 0 25 -5 35 -20 40 -11 4 -28 17 -36 31 -9 13 -25 24
-35 24 -18 0 -19 -5 -13 -50 4 -29 2 -55 -3 -62 -14 -17 -25 -100 -17 -121 3
-9 13 -17 21 -17 8 0 28 -10 45 -21 27 -20 30 -26 25 -65 -5 -51 12 -71 83
-97 76 -28 115 -23 162 22 43 42 56 43 97 7 23 -21 23 -24 17 -137 -7 -112 -6
-118 16 -143 13 -15 39 -34 58 -44 32 -16 35 -21 33 -56 -2 -23 -14 -55 -28
-76 -14 -20 -25 -41 -25 -47 0 -11 -35 -51 -117 -135 -73 -75 -96 -89 -147
-98 -28 -4 -62 -13 -76 -18 -14 -6 -37 -13 -52 -16 -19 -4 -28 -13 -28 -26 0
-10 -4 -21 -9 -24 -4 -3 -11 -19 -14 -36 -4 -16 -12 -30 -18 -30 -6 0 -24 -10
-40 -22 -16 -13 -42 -33 -58 -45 -33 -26 -77 -30 -107 -9 -11 8 -31 16 -44 18
-16 2 -26 11 -30 28 -3 14 -14 27 -25 29 -26 4 -35 19 -35 57 0 16 -6 37 -12
45 -17 21 -94 79 -104 79 -4 0 -15 7 -25 15 -10 10 -45 18 -88 22 -39 3 -74
10 -77 14 -8 13 -102 11 -109 -2 -4 -5 -17 -14 -28 -20 -12 -5 -29 -13 -37
-17 -8 -5 -28 -15 -44 -23 -31 -15 -75 -81 -76 -113 0 -27 -79 -95 -125 -107
-101 -28 -144 -56 -172 -114 -8 -16 -21 -43 -30 -59 -27 -51 -27 -97 1 -167
14 -36 26 -75 26 -87 0 -24 23 -91 46 -134 8 -14 14 -35 14 -46 0 -12 4 -23 9
-26 15 -10 23 -80 25 -244 2 -86 9 -193 16 -237 11 -70 18 -86 56 -134 24 -29
44 -60 44 -69 0 -8 8 -24 17 -35 15 -16 18 -36 16 -106 -2 -87 21 -195 50
-229 12 -15 18 -215 7 -232 -3 -4 -14 -10 -25 -14 -11 -3 -33 -29 -48 -57 -16
-27 -39 -55 -52 -61 -37 -17 -50 -59 -30 -98 15 -29 15 -34 0 -56 -8 -13 -22
-24 -30 -24 -21 0 -85 -59 -85 -79 0 -9 -7 -25 -15 -35 -8 -11 -15 -31 -15
-45 0 -15 -14 -41 -33 -62 -45 -51 -137 -129 -164 -140 -13 -5 -23 -13 -23
-19 0 -6 -17 -18 -38 -26 -65 -27 -132 -120 -132 -183 0 -22 4 -43 10 -46 23
-14 8 -52 -36 -95 -74 -72 -94 -110 -94 -181 0 -54 3 -64 30 -91 30 -30 39
-65 20 -84 -22 -22 -50 -130 -50 -194 0 -53 4 -73 21 -94 30 -38 89 -65 156
-72 75 -8 121 11 159 65 16 22 33 41 37 41 4 0 24 -15 43 -34 39 -38 84 -50
141 -40 45 8 99 38 107 60 9 23 32 2 39 -34 14 -67 106 -128 182 -120 64 8
130 81 168 190 8 23 16 23 83 -7 116 -51 152 -26 161 111 5 88 -3 157 -28 224
-21 59 -50 120 -60 126 -16 10 -9 35 19 73 37 47 52 92 52 158 0 47 3 55 25
65 17 8 37 8 63 2 36 -9 37 -10 34 -49 -12 -150 -1 -253 32 -298 17 -24 22
-48 26 -155 5 -102 10 -133 25 -157 11 -16 22 -32 26 -35 3 -3 11 -15 17 -26
6 -12 37 -38 67 -59 47 -31 65 -37 107 -37 42 1 57 -4 87 -29 31 -25 44 -29
99 -29 43 0 71 6 90 17 26 18 36 27 85 87 l24 30 54 -36 c56 -37 136 -53 189
-39 30 8 69 80 70 127 0 42 14 51 78 51 40 1 59 6 76 22 30 28 56 115 56 187
0 57 -14 94 -70 181 -12 18 -12 28 -2 56 7 18 12 61 12 96 0 92 -32 147 -121
207 -30 20 -57 41 -61 48 -4 7 -25 21 -47 31 -31 14 -44 28 -58 61 -15 36 -26
47 -66 64 -35 16 -52 30 -62 53 -17 40 -58 79 -113 106 -29 15 -42 28 -42 42
0 11 -12 31 -27 45 -17 16 -29 39 -32 66 -6 41 -14 50 -63 68 -26 9 -28 14
-30 72 -3 88 0 129 11 142 5 6 14 29 20 52 6 23 21 56 34 75 18 27 31 35 67
41 86 12 142 40 200 97 63 63 90 101 90 129 0 11 7 39 15 62 12 34 13 50 4 79
-7 20 -15 95 -20 166 -4 72 -10 146 -14 166 -6 34 9 100 34 146 6 10 19 45 30
78 57 171 70 196 125 241 132 107 147 128 172 250 l16 75 -28 66 c-33 77 -34
74 66 162 l73 63 56 -6 c62 -7 100 -35 122 -89 15 -36 64 -81 116 -108 27 -14
59 -19 113 -19 67 0 79 -3 96 -22 30 -34 44 -74 44 -123 0 -24 6 -64 14 -87
34 -108 38 -127 32 -137 -9 -14 16 -97 42 -141 21 -35 46 -85 63 -127 5 -13
13 -23 18 -23 5 0 14 -13 21 -29 9 -23 9 -38 -1 -72 -15 -51 -47 -109 -60
-109 -5 0 -9 -5 -9 -10 0 -6 -12 -29 -27 -53 -84 -129 -94 -158 -97 -267 -2
-76 -7 -104 -24 -137 l-22 -43 -59 0 c-40 0 -63 5 -71 15 -7 8 -18 15 -24 15
-15 0 -59 56 -79 100 -8 19 -17 58 -20 87 -2 29 -15 73 -28 99 -27 52 -91 110
-109 99 -7 -4 -8 -10 -4 -14 17 -12 54 -99 54 -127 1 -16 7 -56 15 -89 8 -33
15 -76 15 -96 0 -20 11 -56 25 -80 13 -24 29 -53 34 -64 5 -11 19 -30 32 -41
47 -42 84 -54 171 -54 74 1 87 4 123 28 58 41 104 118 125 212 9 40 39 113 50
120 4 3 15 28 25 55 10 28 24 57 30 65 7 8 15 22 19 30 10 22 28 52 53 86 12
17 27 42 33 55 6 13 22 42 35 64 15 24 25 56 25 80 0 35 19 86 49 135 5 8 17
35 26 60 9 25 22 54 27 65 34 63 42 132 43 375 2 207 4 250 18 277 10 18 17
38 17 45 0 28 74 104 131 136 33 17 67 32 75 32 35 0 84 34 107 73 19 32 26
63 30 132 4 50 14 115 23 145 23 81 27 125 14 151 -33 65 -89 139 -120 160
-38 25 -101 59 -110 59 -3 0 -26 -19 -52 -43 -53 -48 -126 -76 -161 -60 -14 6
-29 30 -40 61 -13 36 -35 66 -78 106 -32 31 -59 60 -59 66 0 6 -12 22 -27 35
-22 18 -30 37 -38 87 -8 53 -14 65 -36 75 -35 17 -53 39 -45 58 7 19 26 20 26
1 0 -13 20 -26 41 -26 13 0 11 28 -3 32 -7 3 -12 17 -13 33 0 27 -3 29 -42 31
-28 1 -43 -3 -47 -12 -3 -8 -14 -14 -25 -14 -11 0 -23 -4 -26 -10 -3 -5 -13
-10 -21 -10 -12 0 -14 11 -12 53 3 46 5 52 23 49 11 -2 26 -11 33 -20 12 -16
14 -16 28 2 8 11 14 36 14 57 0 20 7 49 14 65 8 15 13 31 10 36 -7 12 -32 10
-40 -3z m-1125 -273 c20 -17 93 -27 114 -15 23 13 46 -35 39 -84 -6 -48 -20
-54 -63 -28 -49 30 -71 28 -67 -6 2 -20 -2 -29 -14 -31 -14 -3 -18 3 -18 27 0
16 5 33 11 37 7 4 2 16 -14 33 -22 23 -32 49 -28 74 2 11 23 8 40 -7z m962
-66 c26 -14 26 -89 0 -121 -17 -21 -21 -22 -59 -11 -22 7 -43 19 -46 27 -7 20
13 53 37 61 10 3 22 17 27 30 11 27 14 28 41 14z m-701 -55 c0 -7 14 -23 30
-35 35 -25 39 -56 10 -93 -24 -30 -25 -46 -4 -54 26 -10 58 -90 47 -116 -8
-17 -5 -28 13 -52 12 -16 24 -41 26 -55 2 -21 9 -25 43 -28 22 -2 45 -8 51
-13 13 -11 24 -1 24 22 0 27 15 31 55 12 41 -19 53 -51 36 -90 -13 -28 -7 -39
24 -45 11 -2 26 -16 33 -31 13 -27 32 -28 32 -1 0 19 13 18 40 -4 20 -16 21
-19 6 -31 -9 -7 -16 -25 -16 -40 0 -34 -52 -93 -74 -85 -14 5 -22 31 -17 58 4
21 -12 46 -31 46 -13 0 -18 5 -15 14 8 19 -14 66 -30 66 -16 0 -17 -12 -2 -27
17 -17 2 -33 -31 -33 -21 0 -31 6 -36 22 -6 21 7 38 40 52 14 6 -22 36 -43 36
-8 0 -25 9 -37 21 -27 25 -39 20 -47 -19 -3 -15 -15 -40 -27 -55 -21 -26 -23
-27 -46 -12 -31 20 -34 19 -34 -9 0 -32 15 -41 70 -41 37 0 46 -4 56 -24 7
-13 18 -27 25 -32 7 -4 13 -24 13 -43 0 -41 6 -45 24 -15 12 19 15 20 31 5 23
-21 31 -20 31 3 0 26 18 37 27 15 4 -10 0 -22 -10 -29 -10 -7 -17 -19 -17 -27
0 -9 -7 -21 -15 -28 -10 -9 -15 -32 -15 -76 0 -53 -3 -65 -20 -74 -11 -6 -20
-18 -20 -26 0 -11 -5 -14 -16 -10 -10 4 -25 -1 -34 -9 -12 -11 -20 -13 -25 -6
-9 16 -35 13 -41 -3 -3 -8 5 -28 17 -45 22 -30 22 -31 4 -51 -13 -14 -26 -19
-41 -16 -13 4 -26 2 -29 -4 -10 -15 -55 -12 -61 5 -6 15 -34 21 -34 8 0 -5 7
-17 15 -27 21 -27 19 -43 -6 -57 -32 -17 -88 -3 -99 26 -7 17 -14 22 -30 18
-11 -3 -26 0 -33 6 -19 15 -27 4 -27 -41 0 -42 8 -46 46 -22 23 15 26 15 44
-1 10 -9 24 -14 29 -10 16 9 51 -4 51 -20 0 -19 -34 -28 -100 -28 -30 0 -60
-3 -66 -8 -5 -4 -39 -10 -75 -12 -56 -4 -69 -1 -101 20 -21 14 -40 34 -43 44
-7 23 -25 25 -25 4 0 -8 8 -33 17 -55 13 -28 25 -41 44 -45 17 -4 31 -17 39
-34 6 -15 25 -34 42 -42 17 -8 30 -18 29 -24 -1 -11 -63 -11 -124 0 -38 7 -38
7 -32 -21 4 -16 11 -41 17 -56 13 -35 3 -50 -28 -42 -21 5 -24 3 -24 -20 0
-37 -36 -34 -90 7 -24 17 -50 37 -59 44 -9 7 -26 10 -38 7 -28 -8 -41 -44 -20
-55 8 -5 30 -24 48 -42 22 -22 50 -37 79 -43 39 -8 45 -13 45 -34 0 -21 -7
-27 -39 -35 -30 -7 -41 -6 -50 6 -6 8 -22 20 -36 27 -45 23 -70 38 -89 56 -37
34 -55 18 -63 -57 -8 -80 -19 -98 -57 -91 -22 5 -33 0 -50 -22 -12 -15 -35
-37 -51 -49 -17 -12 -44 -42 -62 -66 -30 -41 -32 -42 -41 -22 -10 23 11 92 38
123 7 8 16 32 19 53 6 34 3 43 -33 89 -45 56 -52 92 -21 108 12 6 20 21 20 35
0 14 5 25 10 25 6 0 14 8 17 18 9 25 45 72 55 72 12 0 10 -48 -2 -55 -5 -3
-10 -22 -10 -42 0 -34 1 -35 28 -29 15 4 45 8 67 9 l40 2 1 76 c1 43 6 83 13
90 6 8 18 23 25 33 8 12 24 19 44 18 35 -1 39 7 41 83 0 29 7 55 16 64 13 13
17 12 39 -8 l25 -24 10 24 c5 13 12 36 15 51 8 36 53 88 77 88 16 0 18 -5 13
-25 -4 -15 -2 -25 4 -25 6 0 12 -12 14 -27 4 -34 28 -43 28 -11 0 13 -5 29
-12 36 -9 9 -9 15 0 24 7 7 12 22 12 34 0 38 11 54 38 54 20 0 23 -3 14 -12
-7 -7 -12 -23 -12 -37 0 -24 0 -24 21 -5 16 15 20 26 15 53 -4 24 0 42 14 61
11 15 24 38 30 51 27 60 72 119 90 119 5 0 10 7 10 15 0 27 22 63 47 74 37 17
85 -11 77 -44 -8 -33 2 -32 61 11 48 34 50 37 50 82 0 40 3 47 19 45 16 -1 17
4 12 38 -4 22 -20 59 -37 82 -31 42 -31 43 -24 133 6 88 6 92 -16 108 -13 9
-33 16 -45 16 -26 0 -48 42 -31 59 6 6 21 11 33 11 14 0 24 8 28 23 3 12 19
39 36 60 30 36 50 41 50 12z m-780 -43 c0 -21 -7 -32 -25 -40 -22 -10 -25 -9
-25 8 0 26 21 60 37 60 8 0 13 -12 13 -28z m135 -19 c10 -16 31 -38 46 -51 23
-19 29 -32 29 -63 0 -33 -4 -41 -24 -49 -14 -5 -30 -18 -36 -30 -11 -20 -11
-20 -51 7 -43 31 -53 54 -54 124 0 80 55 117 90 62z m129 21 c18 -7 22 -49 6
-59 -16 -10 -80 15 -80 31 0 22 46 39 74 28z m1496 -84 c10 -5 28 -25 40 -44
16 -27 19 -40 11 -54 -13 -25 -5 -32 28 -26 23 5 32 -2 69 -52 39 -52 41 -59
29 -78 -11 -15 -27 -22 -62 -24 -44 -3 -46 -5 -41 -26 7 -28 -14 -49 -39 -40
-14 6 -16 2 -13 -21 2 -24 -2 -30 -27 -38 -16 -6 -33 -15 -37 -21 -7 -10 -7
-186 0 -186 1 0 11 6 22 12 30 19 55 -1 55 -43 0 -27 -7 -38 -39 -60 -34 -22
-50 -26 -103 -25 -72 1 -85 15 -59 64 22 43 43 57 61 42 23 -19 26 -10 18 59
-5 50 -8 59 -16 45 -5 -11 -19 -29 -30 -42 -22 -24 -37 -15 -37 22 0 14 44 81
70 106 3 3 16 20 29 39 20 29 22 36 10 57 -10 19 -10 31 1 63 8 25 10 58 6 88
-6 44 -4 52 19 73 21 20 23 27 13 35 -24 20 -36 50 -26 68 10 19 22 21 48 7z
m-1164 -65 c7 -29 11 -30 35 -9 16 14 18 14 29 -6 11 -21 5 -76 -10 -85 -4 -3
1 -22 11 -42 10 -21 19 -47 19 -59 0 -12 9 -33 20 -47 33 -42 21 -117 -20
-117 -10 0 -31 -5 -46 -12 -22 -10 -28 -10 -39 5 -7 10 -26 17 -47 17 -68 0
-73 11 -74 172 0 79 -4 155 -8 170 -7 25 -5 27 26 31 85 10 97 8 104 -18z
m668 -160 c3 -8 14 -15 25 -15 24 0 34 -25 16 -40 -8 -6 -15 -24 -17 -38 -3
-23 -7 -27 -30 -24 -32 3 -38 -13 -8 -21 23 -6 29 -57 7 -57 -31 0 -68 79 -49
103 5 7 13 30 17 52 4 22 9 43 11 47 8 13 21 9 28 -7z m1034 -21 c13 -9 22
-23 21 -32 -4 -39 1 -48 16 -28 16 21 35 13 35 -15 0 -14 -7 -19 -27 -19 l-28
0 25 -20 c20 -15 23 -21 12 -31 -6 -7 -22 -13 -35 -14 -12 0 -55 -22 -94 -48
-52 -35 -78 -47 -93 -42 -11 4 -20 2 -20 -4 0 -6 -13 -17 -30 -26 -16 -9 -30
-22 -30 -29 0 -22 -76 -69 -99 -61 -25 8 -26 13 -6 53 10 20 21 29 31 25 8 -3
25 -2 39 1 42 11 34 51 -15 76 -22 11 -40 24 -40 29 0 5 -7 12 -15 15 -23 9
-30 -22 -10 -44 20 -22 12 -56 -16 -65 -10 -4 -19 -15 -19 -26 0 -23 -35 -26
-44 -4 -3 8 -14 15 -25 15 -19 0 -61 47 -61 68 0 14 36 25 59 17 25 -7 35 9
16 25 -12 10 -12 15 1 35 17 25 51 42 104 49 103 15 112 17 106 32 -5 14 18
19 73 16 13 -1 38 9 55 21 70 50 82 54 114 31z m-688 -63 c5 -11 10 -35 10
-53 0 -19 5 -39 12 -46 18 -18 -42 -15 -66 3 -24 18 -36 19 -36 3 0 -7 -20
-32 -45 -55 -57 -55 -85 -56 -120 -6 -30 45 -31 59 -5 73 19 10 19 13 5 40
-15 28 -6 48 15 35 5 -3 20 -1 32 6 19 10 24 8 40 -11 11 -13 18 -35 16 -48
-2 -14 3 -27 9 -29 13 -5 17 2 27 49 10 46 87 74 106 39z m-643 -97 c8 -22
-15 -44 -26 -25 -10 16 -4 41 10 41 5 0 12 -7 16 -16z m623 -43 c0 -34 -12
-51 -35 -51 -27 0 -42 -30 -23 -45 8 -6 13 -32 13 -68 0 -57 -1 -59 -33 -73
-31 -13 -33 -12 -30 6 4 24 -14 27 -27 4 -7 -12 -6 -18 3 -21 14 -5 15 -22 3
-42 -8 -12 -12 -12 -25 -2 -14 12 -16 10 -16 -7 0 -11 -6 -27 -13 -34 -26 -25
-37 -56 -31 -86 8 -40 -11 -49 -47 -23 -31 23 -54 27 -64 11 -3 -6 14 -36 39
-68 31 -39 46 -68 46 -88 0 -41 -10 -51 -50 -52 -39 -1 -70 21 -70 50 0 25
-17 23 -31 -4 l-11 -21 -19 24 c-14 18 -18 34 -13 60 5 32 3 36 -18 35 -20 -1
-23 4 -25 44 -1 25 -4 84 -6 132 -3 65 -1 91 9 99 22 18 87 49 127 60 37 10
37 10 37 63 0 37 4 56 14 59 27 11 48 -18 54 -71 5 -60 27 -70 59 -26 13 18
33 29 59 33 35 6 39 10 42 38 5 55 82 115 82 64z m676 -98 c41 -31 59 -62 69
-121 8 -51 -9 -71 -62 -72 -28 0 -32 -3 -35 -31 -3 -34 -7 -37 -78 -64 -25 -9
-53 -21 -63 -26 -10 -5 -22 -7 -27 -4 -6 3 -20 -1 -32 -9 -37 -26 -51 -21 -44
15 3 18 1 38 -5 45 -13 16 7 52 48 91 12 12 23 33 23 46 0 25 21 37 68 37 17
0 22 6 22 25 0 14 7 41 14 60 19 44 52 47 102 8z m-571 -235 c-28 -15 -28 -14
-20 -37 9 -30 35 -27 35 4 0 19 5 25 23 25 13 0 27 -4 33 -10 5 -5 34 -11 64
-12 l55 -4 -3 -32 c-3 -24 1 -32 12 -32 9 0 16 -7 16 -15 0 -8 -9 -15 -20 -15
-17 0 -20 -6 -18 -27 2 -22 -2 -29 -19 -31 -19 -3 -23 -10 -23 -42 0 -41 -1
-42 -67 -55 -34 -7 -59 -29 -27 -23 25 4 29 -24 6 -52 -11 -14 -30 -23 -48
-24 -26 -1 -30 -4 -26 -25 4 -20 2 -22 -15 -13 -14 8 -23 8 -31 0 -12 -12 -56
4 -77 28 -5 7 -22 14 -37 18 -18 4 -28 13 -28 24 0 10 -6 27 -14 38 -19 27
-24 86 -8 91 7 3 12 -4 12 -17 0 -13 8 -24 20 -27 11 -3 20 -11 20 -19 0 -17
39 -39 51 -27 11 11 -1 26 -32 40 -37 16 -45 63 -19 113 11 22 20 46 20 54 0
9 11 23 25 32 14 9 25 24 25 34 0 20 19 30 56 30 13 0 24 5 24 10 0 6 12 10
28 10 25 -1 26 -1 7 -12z m-2224 -93 c16 -9 29 -19 29 -24 0 -5 9 -11 21 -14
25 -7 16 -27 -12 -27 -11 0 -19 7 -19 16 0 11 -8 14 -27 12 -27 -3 -46 -28
-21 -28 24 0 98 -35 98 -46 0 -16 -82 -27 -113 -15 -29 11 -33 21 -16 38 9 9
8 16 -4 27 -22 22 -35 20 -39 -6 -2 -13 -12 -24 -26 -28 -32 -7 -33 -24 -2
-28 14 -2 33 -11 42 -19 12 -11 28 -13 51 -9 24 4 38 2 46 -8 7 -8 25 -18 41
-21 16 -3 31 -12 34 -20 2 -7 17 -15 33 -17 22 -2 29 -9 31 -29 4 -33 -12 -39
-69 -29 -33 6 -48 5 -60 -6 -9 -8 -33 -18 -53 -21 -29 -4 -36 -2 -36 11 0 9 5
16 11 16 6 0 9 8 7 18 -2 13 -17 19 -58 24 -97 11 -125 21 -125 46 0 12 -12
33 -27 47 -29 27 -36 59 -17 71 6 3 16 1 22 -5 17 -17 37 -13 37 8 0 13 9 20
30 25 39 7 38 21 -1 35 -17 6 -28 15 -24 20 9 15 182 3 216 -14z m2029 4 c0
-5 -7 -9 -15 -9 -15 0 -20 12 -9 23 8 8 24 -1 24 -14z m503 -99 c7 -12 -3 -29
-47 -74 -45 -46 -62 -57 -84 -54 -34 4 -42 33 -10 41 13 4 32 21 42 39 35 62
77 82 99 48z m-2879 -125 c17 -14 36 -29 42 -34 5 -4 28 -12 50 -17 58 -14 48
-29 -23 -32 -60 -3 -63 -2 -69 23 -7 29 -10 30 -31 9 -9 -8 -27 -14 -42 -12
-22 2 -26 8 -26 33 0 21 7 33 25 42 34 17 38 17 74 -12z m2855 -72 c-21 -5
-61 -85 -49 -97 6 -6 10 -18 10 -27 0 -9 10 -23 22 -31 19 -13 21 -18 10 -31
-10 -12 -11 -21 -3 -36 12 -21 12 -169 1 -186 -4 -5 -10 -26 -14 -46 -3 -20
-15 -44 -26 -54 -11 -10 -20 -26 -20 -36 0 -27 -17 -32 -45 -12 -30 22 -31 33
-5 40 11 3 20 7 20 10 0 8 -35 40 -55 51 -22 11 -55 98 -55 143 0 13 9 30 20
37 11 7 20 19 20 27 0 9 7 27 16 41 16 23 18 24 35 8 18 -16 19 -16 19 4 0 12
9 26 20 32 19 10 19 11 0 30 -25 25 -37 25 -49 3 -5 -10 -28 -38 -51 -62 -36
-38 -45 -43 -61 -33 -16 10 -19 7 -25 -26 -9 -50 -12 -54 -34 -42 -16 8 -22 6
-32 -10 -14 -21 -43 -27 -53 -9 -14 21 6 58 42 80 43 26 62 47 63 69 0 8 14
28 30 43 17 16 30 37 30 47 0 10 14 29 31 41 25 17 35 19 54 11 19 -9 26 -7
41 9 12 14 29 19 63 18 25 -1 39 -3 30 -6z m-1349 -18 c8 -5 7 -11 -1 -21 -20
-24 -188 -13 -196 13 -7 20 167 27 197 8z m-1668 -7 c22 -6 44 -20 50 -31 12
-22 4 -77 -19 -129 -22 -51 -41 -49 -45 4 -6 81 -36 49 -54 -57 -11 -66 -57
-101 -69 -52 -12 46 -11 113 2 144 18 45 16 63 -7 63 -14 0 -20 7 -20 21 0 15
5 20 23 17 12 -1 33 5 47 15 29 20 40 21 92 5z m582 -43 c31 -29 32 -39 6 -58
-14 -9 -21 -30 -26 -71 -4 -31 -11 -59 -15 -62 -5 -3 -9 -16 -9 -30 0 -17 5
-24 20 -24 14 0 20 -7 20 -21 0 -14 10 -24 29 -32 16 -6 34 -21 40 -34 6 -13
22 -28 36 -33 26 -10 26 -40 -1 -40 -10 0 -12 -21 -9 -100 l4 -100 -30 -30
c-33 -33 -56 -38 -65 -15 -4 8 -14 15 -24 15 -29 0 -82 70 -75 100 4 18 3 21
-4 10 -16 -24 -65 -1 -69 33 -2 15 -12 32 -23 38 -16 8 -18 13 -8 25 16 20 29
17 29 -6 0 -22 15 -27 26 -8 4 6 0 16 -9 23 -10 7 -17 19 -17 28 0 22 -11 47
-20 47 -4 0 -10 -10 -13 -21 -6 -21 -7 -21 -31 9 -30 34 -32 47 -11 56 8 3 15
16 15 29 0 13 9 32 20 42 12 11 20 29 18 41 -1 11 3 29 11 38 11 13 12 22 2
43 -10 22 -9 29 10 49 13 13 31 24 41 24 9 0 25 11 34 24 14 23 30 32 60 35 6
0 23 -10 38 -24z m299 -1 c-4 -10 -9 -12 -15 -6 -12 12 -1 35 12 27 5 -3 6
-13 3 -21z m-555 10 c30 -8 29 -41 -3 -66 -13 -10 -29 -36 -35 -58 -6 -21 -17
-41 -25 -44 -8 -3 -15 -15 -15 -26 0 -22 -15 -27 -23 -7 -3 8 -18 -1 -42 -25
-40 -42 -59 -46 -87 -21 -22 20 -23 37 -1 108 12 38 31 71 60 101 40 41 46 44
95 44 29 0 63 -3 76 -6z m442 -72 c0 -29 -44 -102 -60 -102 -6 0 -10 -6 -10
-14 0 -9 -7 -12 -21 -9 -18 5 -20 11 -15 46 8 48 13 57 31 57 7 0 23 14 35 30
25 34 40 31 40 -8z m968 -53 c2 -9 -4 -24 -13 -32 -21 -21 -19 -37 4 -37 27 0
35 -16 16 -32 -9 -7 -32 -30 -52 -50 -27 -29 -44 -38 -68 -38 -30 0 -33 -4
-39 -35 -4 -20 -21 -55 -37 -78 -17 -23 -39 -57 -51 -74 -17 -28 -26 -33 -58
-33 -26 0 -40 -5 -44 -17 -6 -15 -8 -15 -24 0 -15 16 -15 19 3 53 11 20 25 39
33 41 7 3 26 25 42 48 30 43 30 44 13 74 -14 24 -23 29 -40 24 -17 -4 -23 -1
-23 11 0 17 6 19 55 20 21 1 31 7 33 20 3 16 -1 18 -24 13 l-29 -5 24 19 c15
12 31 17 47 13 18 -5 33 2 59 25 23 20 46 31 66 31 28 0 31 3 25 24 -8 31 1
38 44 34 23 -2 36 -9 38 -19z m1032 -185 c0 -13 5 -26 11 -29 5 -4 9 -17 7
-30 -1 -12 3 -29 10 -38 7 -8 14 -27 16 -42 2 -14 17 -42 35 -61 35 -37 34
-54 -5 -54 -13 0 -24 -4 -24 -9 0 -13 -30 -22 -43 -14 -7 4 -26 6 -44 4 -27
-2 -35 2 -44 23 -17 37 -5 43 40 18 21 -12 41 -19 45 -15 11 12 6 50 -9 63 -8
7 -18 30 -21 51 -4 22 -12 39 -18 38 -39 -5 -48 19 -21 55 8 11 15 30 15 42 0
12 3 30 6 39 6 14 8 14 25 -1 11 -9 19 -27 19 -40z m-2559 -4 c23 -13 52 -67
45 -85 -4 -11 -35 -20 -101 -28 -14 -1 -21 5 -25 25 -3 15 -13 37 -22 48 -25
29 -22 33 11 16 28 -15 30 -14 45 9 19 28 20 29 47 15z m-371 -30 c0 -16 -4
-30 -10 -30 -5 0 -10 14 -10 30 0 17 5 30 10 30 6 0 10 -13 10 -30z m81 4 c7
-8 25 -22 41 -30 15 -8 28 -23 28 -32 0 -23 57 -77 90 -87 14 -4 34 -14 45
-21 11 -8 31 -14 46 -14 14 0 38 -9 52 -20 14 -11 29 -20 33 -20 4 0 25 -8 45
-17 41 -19 50 -46 23 -61 -18 -10 -86 11 -116 36 -13 10 -21 11 -37 2 -29 -15
-19 -27 30 -35 22 -4 43 -13 46 -21 9 -23 -24 -52 -52 -46 -29 5 -33 -12 -9
-40 10 -10 19 -41 22 -70 4 -40 7 -47 12 -28 3 15 14 26 27 28 24 4 38 53 27
97 -5 21 -3 24 10 19 10 -4 26 1 38 12 15 14 22 16 25 7 5 -15 33 -18 33 -4 0
5 -5 11 -12 13 -16 6 -1 28 19 28 22 0 103 -39 103 -50 0 -4 18 -27 40 -50 22
-23 40 -47 40 -52 0 -5 16 -16 35 -24 23 -9 35 -21 35 -34 0 -14 8 -20 32 -22
26 -2 33 -9 40 -34 4 -17 15 -37 23 -44 18 -15 20 -53 4 -81 -10 -20 -12 -20
-29 -4 -11 10 -24 33 -30 51 -7 19 -15 34 -20 34 -4 0 -11 16 -14 35 -5 26
-12 35 -26 35 -21 0 -27 -24 -10 -35 7 -4 7 -12 0 -25 -13 -25 -13 -28 6 -32
18 -4 41 -63 36 -95 -3 -20 -10 -23 -44 -23 -22 0 -38 -3 -36 -7 29 -60 32
-63 52 -57 12 3 31 17 44 31 18 20 26 23 37 13 16 -13 35 -6 35 13 0 7 8 20
19 29 10 8 21 22 24 29 4 11 10 9 26 -6 16 -16 22 -34 22 -73 1 -28 -4 -58
-10 -66 -10 -12 -8 -15 11 -18 19 -2 24 -11 29 -48 4 -25 14 -63 23 -84 9 -22
14 -48 10 -58 -3 -11 0 -20 10 -24 10 -4 16 -18 16 -39 0 -18 7 -38 15 -45 19
-16 19 -30 -1 -45 -15 -11 -14 -14 8 -36 44 -43 70 -88 63 -109 -4 -12 -25
-33 -47 -48 -40 -26 -40 -27 -19 -40 11 -8 21 -23 21 -33 0 -23 -42 -69 -64
-69 -9 0 -21 -11 -26 -24 -5 -13 -14 -27 -19 -31 -7 -4 -9 -21 -5 -43 6 -40
-12 -66 -51 -74 -26 -4 -60 -95 -45 -121 9 -15 6 -17 -20 -17 -24 0 -33 -6
-40 -27 -6 -16 -15 -36 -20 -45 -14 -25 -13 -28 15 -28 18 0 25 -5 25 -20 0
-11 9 -28 20 -37 24 -21 26 -46 5 -63 -11 -9 -12 -16 -5 -25 6 -7 8 -24 5 -38
-4 -14 -3 -27 2 -30 5 -3 7 -24 5 -46 -3 -34 -8 -41 -34 -50 -45 -16 -45 -15
-46 36 0 72 -12 120 -33 139 -26 23 -25 64 0 64 11 0 23 -9 26 -20 8 -26 25
-26 25 1 0 12 -12 33 -28 47 -36 35 -59 73 -64 103 -2 18 -10 25 -36 29 -23 4
-38 14 -52 38 -11 17 -25 32 -31 32 -6 0 -8 8 -4 19 5 16 -5 24 -51 45 -55 25
-56 27 -40 45 24 26 4 36 -33 16 -17 -8 -36 -15 -44 -15 -8 0 -22 -9 -32 -20
-23 -26 -51 -26 -65 0 -6 11 -20 20 -30 20 -28 0 -25 19 6 30 18 7 24 15 20
28 -3 9 -8 34 -12 55 -5 32 -4 37 12 37 11 0 25 -9 32 -20 17 -29 49 -26 54 5
3 14 -1 30 -8 36 -8 6 -14 22 -14 35 0 13 -9 33 -20 44 -11 11 -20 29 -20 40
0 13 -7 20 -20 20 -23 0 -43 32 -34 55 5 13 2 16 -17 13 -46 -6 -68 97 -30
143 27 33 55 16 59 -35 3 -29 7 -36 24 -36 11 0 35 -16 54 -35 18 -19 44 -39
58 -45 31 -11 32 -21 6 -45 -28 -25 -26 -48 3 -39 24 7 37 22 37 43 0 10 3 11
13 3 24 -20 81 -3 99 29 10 16 23 29 31 29 8 0 34 21 57 46 49 53 95 72 120
49 22 -20 30 -19 30 3 0 11 10 24 23 30 l22 11 -22 0 c-30 1 -35 13 -27 61 5
30 11 40 23 38 9 -2 16 -13 16 -28 0 -41 30 -32 30 10 1 19 7 52 14 73 14 42
2 91 -25 101 -8 3 -14 14 -14 25 0 11 -5 23 -11 27 -17 10 -32 -12 -31 -47 1
-38 -55 -128 -98 -159 -16 -11 -31 -29 -34 -38 -7 -22 -80 -56 -107 -49 -10 3
-22 1 -25 -4 -8 -13 -48 -11 -62 3 -14 14 -16 64 -2 73 5 3 22 -1 37 -8 19
-10 35 -12 52 -6 22 9 23 11 7 28 -11 13 -14 27 -10 50 6 28 4 33 -11 30 -10
-2 -18 -8 -18 -14 2 -21 -21 -37 -48 -31 -15 3 -41 1 -58 -4 -22 -6 -33 -5
-41 5 -9 11 -16 12 -31 2 -17 -10 -22 -9 -30 6 -6 9 -17 17 -25 17 -12 0 -14
8 -9 44 4 27 3 46 -4 50 -12 8 6 56 22 56 5 0 21 9 35 21 25 19 27 20 40 2 13
-17 14 -17 36 8 12 14 30 28 39 32 21 8 22 34 2 39 -10 2 -2 17 29 50 24 26
41 50 38 53 -16 16 -71 2 -105 -26 -42 -34 -47 -54 -16 -62 28 -7 19 -32 -12
-33 -13 0 -32 -4 -41 -8 -27 -12 -50 1 -46 26 2 15 11 24 26 26 12 2 22 9 22
16 0 8 7 19 15 26 8 7 15 20 15 28 0 9 7 36 16 59 20 50 44 57 44 13 0 -36 16
-45 53 -31 25 10 26 12 12 38 -8 15 -12 38 -8 51 6 24 -20 62 -43 62 -7 0 -24
-10 -37 -22 -13 -13 -31 -28 -42 -33 -13 -8 -19 -26 -23 -68 -5 -59 -18 -71
-42 -42 -18 21 -38 2 -46 -44 -4 -20 -11 -41 -16 -48 -5 -7 -7 -41 -4 -75 3
-35 5 -70 5 -78 -1 -8 -1 -34 0 -57 0 -38 -3 -43 -22 -43 -12 0 -30 11 -39 24
-15 21 -16 26 -3 36 13 10 13 17 0 47 -17 40 -20 144 -5 159 5 5 13 38 16 72
6 54 11 66 37 84 26 19 29 25 23 62 -7 55 -56 147 -84 157 -20 8 -21 6 -9 -12
10 -17 9 -22 -8 -35 -27 -20 -40 -13 -43 27 -2 19 -9 48 -17 66 -8 17 -15 39
-15 50 0 10 -7 28 -15 40 -8 12 -13 28 -10 36 7 17 -20 41 -35 32 -5 -3 -10
-20 -10 -36 0 -27 -2 -29 -21 -19 -11 6 -22 19 -25 28 -3 9 -12 30 -20 45 -16
32 -18 57 -5 57 5 0 14 14 20 30 11 33 31 39 52 14z m1279 -43 c0 -12 -53 -47
-82 -54 -15 -4 -30 -16 -33 -27 -8 -25 -53 -80 -66 -80 -5 0 -9 19 -9 41 0 36
6 48 43 83 38 37 48 42 95 43 28 1 52 -1 52 -6z m-224 -100 c-4 -34 -2 -52 10
-69 14 -20 14 -23 -3 -29 -10 -3 -26 -13 -35 -21 -14 -12 -21 -12 -33 -2 -9 8
-27 10 -50 6 -19 -4 -44 -2 -55 4 -23 12 -27 40 -5 40 7 0 18 6 22 13 11 18
42 30 78 31 21 1 31 7 33 21 16 78 48 83 38 6z m1692 14 c-8 -18 -15 -22 -22
-15 -7 7 -4 15 10 25 25 19 25 19 12 -10z m-1368 -25 c0 -12 -24 -44 -55 -75
-53 -52 -62 -65 -49 -78 8 -8 54 21 75 46 10 13 23 18 33 14 25 -10 2 -47 -29
-47 -18 0 -25 -5 -25 -20 0 -17 7 -20 39 -20 22 0 44 6 51 15 14 17 46 20 55
5 3 -6 -1 -13 -9 -16 -22 -8 -20 -34 2 -34 11 0 24 11 30 25 14 29 37 33 51 7
14 -26 -14 -65 -40 -57 -14 5 -22 -1 -30 -22 -6 -15 -15 -35 -20 -45 -5 -11
-3 -20 7 -29 13 -10 13 -14 -2 -30 -10 -11 -14 -25 -9 -36 6 -17 7 -17 21 1
11 16 17 17 27 7 10 -10 8 -15 -7 -26 -19 -14 -14 -35 9 -35 8 0 17 -4 20 -10
8 -13 -23 -58 -46 -65 -10 -4 -19 -12 -19 -19 0 -7 -6 -21 -14 -31 -12 -16
-16 -17 -30 -6 -9 7 -16 22 -16 33 0 17 -5 20 -30 15 -16 -4 -32 -2 -35 3 -11
18 -32 11 -40 -12 -7 -22 -7 -22 -12 -3 -3 10 0 21 6 23 6 2 11 10 11 18 0 17
22 18 38 2 8 -8 15 -8 26 1 11 10 16 9 23 -3 6 -10 16 -13 32 -9 20 5 22 10
16 40 -3 20 -11 47 -16 61 l-10 27 -18 -24 c-17 -22 -19 -22 -35 -6 -21 22
-16 38 14 45 18 4 26 15 32 44 5 22 6 41 3 44 -7 7 -65 -58 -65 -73 0 -6 -9
-18 -20 -28 -11 -9 -20 -26 -20 -37 0 -11 -4 -20 -10 -20 -5 0 -22 -18 -36
-40 -15 -22 -35 -40 -44 -40 -10 0 -21 -7 -24 -16 -3 -9 -15 -14 -28 -12 -18
2 -22 9 -20 30 2 20 -6 33 -30 52 -28 21 -33 31 -32 66 2 75 54 94 54 19 0
-35 3 -39 24 -39 13 0 31 -3 40 -6 12 -5 15 2 14 40 0 40 4 50 41 88 47 49 58
77 41 107 -14 27 -26 26 -66 -4 -28 -22 -43 -25 -111 -25 -94 0 -111 8 -91 39
7 12 24 25 38 27 35 8 78 48 96 90 14 34 17 36 49 30 29 -6 38 -2 65 24 24 23
40 30 70 30 34 0 40 -3 40 -20z m1650 -115 c0 -8 -6 -19 -12 -25 -49 -41 -63
-50 -77 -51 -26 -2 -45 2 -59 14 -18 14 5 36 60 58 55 22 88 23 88 4z m-2100
-98 c40 -15 110 -77 110 -98 0 -8 -12 -45 -25 -84 -14 -38 -25 -79 -25 -90 0
-29 -19 -45 -52 -45 -24 0 -32 7 -47 43 -10 23 -44 80 -75 125 -31 46 -56 90
-56 98 0 8 11 26 25 39 28 29 86 33 145 12z m-590 -65 c0 -7 -4 -10 -10 -7 -5
3 -10 16 -10 28 0 18 2 19 10 7 5 -8 10 -21 10 -28z m-220 -74 c0 -29 -6 -41
-25 -54 -35 -23 -44 -11 -41 55 4 78 12 88 42 60 17 -16 24 -33 24 -61z m2810
43 c0 -5 -7 -14 -15 -21 -8 -7 -15 -18 -15 -25 0 -6 -9 -20 -20 -30 -11 -10
-20 -28 -20 -40 0 -12 -18 -41 -40 -65 -41 -45 -74 -104 -86 -155 -3 -16 -12
-34 -19 -40 -21 -18 -35 -53 -35 -89 0 -68 -19 -86 -40 -36 -9 23 -10 37 -1
58 6 15 13 46 15 68 4 41 24 84 38 84 5 0 8 12 8 27 0 18 13 38 41 65 28 27
39 44 34 57 -3 11 1 24 11 32 9 7 20 23 25 36 5 13 15 23 23 23 7 0 16 14 20
30 5 27 10 30 41 30 19 0 35 -4 35 -9z m-1870 -177 c17 -44 -21 -85 -47 -51
-12 14 11 77 27 77 6 0 15 -12 20 -26z m64 -82 c-4 -19 -1 -32 10 -41 22 -19
20 -56 -4 -72 -16 -11 -19 -21 -14 -51 8 -47 20 -49 30 -5 3 17 20 45 35 61
16 17 29 36 29 43 0 7 11 13 24 13 14 0 27 4 31 9 3 6 22 10 43 10 20 0 46 2
57 3 17 3 21 -4 25 -41 5 -42 7 -44 38 -45 19 -1 38 5 44 12 6 6 17 12 24 12
13 0 20 35 15 87 -1 12 3 24 9 28 14 9 13 -97 -2 -132 -6 -15 -19 -36 -27 -46
-14 -17 -14 -20 2 -28 26 -15 22 -43 -5 -34 -58 18 -63 14 -64 -48 0 -31 -5
-62 -11 -68 -5 -5 -33 -10 -62 -11 -43 0 -51 -3 -51 -19 0 -11 -7 -19 -16 -19
-11 0 -14 5 -10 16 3 8 1 24 -5 36 -10 18 -12 19 -29 3 -18 -16 -64 -13 -76 6
-3 5 -10 7 -15 3 -16 -9 31 -54 56 -54 23 0 45 -17 45 -36 0 -19 -28 -24 -44
-9 -8 8 -22 15 -31 15 -8 0 -18 7 -22 16 -3 8 -17 20 -31 25 -23 9 -24 11 -10
26 19 19 8 54 -28 90 -21 21 -22 25 -8 52 14 27 14 97 0 119 -3 6 -21 8 -39 5
-23 -3 -37 0 -46 11 -19 22 2 46 40 46 16 0 37 9 47 19 9 11 25 20 34 20 14 1
16 -5 12 -27z m64 -20 c3 -17 -2 -22 -17 -22 -16 0 -21 6 -21 26 0 33 33 30
38 -4z m326 -221 c9 -13 -21 -78 -39 -84 -17 -7 -21 18 -5 28 6 3 10 19 10 36
0 28 21 41 34 20z m-1086 -118 c-5 -26 -38 -29 -38 -4 0 15 6 21 21 21 14 0
19 -5 17 -17z m2000 -31 c23 -8 41 -20 39 -26 -6 -16 -63 -11 -92 8 -29 19
-35 53 -7 41 9 -4 36 -15 60 -23z m-2088 -7 c7 -8 19 -15 26 -15 16 0 18 -9 4
-30 -9 -13 -14 -11 -35 13 -26 29 -32 47 -16 47 5 0 14 -7 21 -15z m2188 -17
c-6 -18 -28 -21 -28 -4 0 9 7 16 16 16 9 0 14 -5 12 -12z m-2098 -43 c13 -16
7 -45 -9 -45 -14 0 -33 38 -26 50 9 14 21 12 35 -5z m52 -40 c0 -5 -5 -11 -11
-13 -6 -2 -11 4 -11 13 0 9 5 15 11 13 6 -2 11 -8 11 -13z m-184 -258 c15 -17
-1 -40 -24 -35 -27 5 -32 48 -6 48 11 0 24 -6 30 -13z m782 -12 c0 -8 -4 -15
-10 -15 -5 0 -10 7 -10 15 0 8 5 15 10 15 6 0 10 -7 10 -15z m-861 -57 c1 -23
-17 -23 -41 -1 -24 21 -23 32 5 42 23 9 35 -4 36 -41z m845 6 c8 -21 -1 -34
-25 -34 -12 0 -19 7 -19 18 0 34 33 45 44 16z m-925 -24 c10 -5 22 -26 26 -47
9 -47 22 -73 38 -73 17 0 78 -57 94 -88 18 -34 16 -50 -8 -62 -28 -16 -49 -6
-49 23 0 27 -50 98 -65 93 -5 -1 -10 -12 -10 -23 0 -18 -97 -123 -114 -123
-19 0 -40 39 -42 79 -3 35 1 47 20 62 33 27 60 24 72 -8 9 -25 12 -26 20 -11
6 10 7 34 3 53 -6 33 -9 35 -45 35 -39 0 -52 13 -24 24 8 3 15 12 15 21 0 14
34 55 46 55 3 0 13 -4 23 -10z m959 -76 c26 -41 30 -94 7 -94 -9 0 -18 13 -22
31 -8 44 -23 17 -23 -44 0 -27 -5 -57 -11 -68 -10 -20 -11 -20 -34 5 -24 26
-24 53 0 89 8 12 10 28 5 45 -5 20 -2 32 13 50 27 30 38 27 65 -14z m97 -138
c11 -16 30 -27 53 -31 32 -5 39 -11 48 -41 9 -27 8 -36 -3 -46 -10 -8 -17 -8
-25 0 -17 17 -25 15 -31 -9 -5 -20 -7 -20 -31 -4 -30 20 -34 40 -9 49 11 5 13
10 6 17 -8 8 -17 8 -32 0 -19 -11 -20 -18 -15 -65 l6 -53 -33 -7 c-22 -4 -35
-2 -41 6 -13 21 -9 76 7 92 8 8 15 28 15 45 0 31 32 71 57 71 7 0 20 -11 28
-24z m-670 -6 c3 -5 -3 -10 -15 -10 -12 0 -18 5 -15 10 3 6 10 10 15 10 5 0
12 -4 15 -10z m-149 -45 c-9 -35 19 -45 45 -16 11 11 25 21 32 21 23 0 81 -36
120 -73 37 -36 46 -64 27 -83 -12 -12 10 -62 40 -89 12 -11 20 -31 20 -50 0
-24 5 -34 20 -38 13 -3 22 -17 26 -36 4 -17 10 -31 15 -31 5 0 9 -4 9 -9 0
-12 -67 -7 -106 8 -24 9 -31 17 -27 31 3 11 -2 22 -15 29 -11 6 -25 24 -30 41
-8 22 -17 30 -35 30 -35 0 -54 26 -39 51 7 10 12 27 12 37 0 10 5 23 11 29 7
7 7 17 1 29 -6 11 -13 27 -16 37 -8 25 -33 32 -63 18 l-26 -12 34 -25 c19 -14
34 -28 33 -32 0 -4 -4 -22 -9 -39 -8 -37 -37 -45 -54 -16 -15 28 -41 -2 -41
-49 0 -28 -5 -40 -17 -45 -23 -9 -33 -23 -33 -50 0 -28 8 -29 35 -3 52 49 66
60 83 60 28 0 33 -10 17 -34 -8 -11 -15 -36 -15 -56 0 -44 -39 -96 -64 -87
-12 5 -15 13 -11 28 6 19 4 21 -19 15 -21 -5 -28 -2 -36 16 -8 21 -9 20 -9
-10 -1 -19 -7 -35 -16 -38 -9 -4 -17 -26 -21 -55 -6 -43 -9 -49 -30 -49 -44 0
-86 105 -51 127 25 15 47 58 47 93 1 19 7 46 15 60 8 14 14 35 15 47 0 17 17
34 65 65 69 44 77 61 31 66 -20 3 -26 8 -22 20 2 9 7 34 11 55 5 29 10 37 27
37 17 0 19 -4 14 -25z m611 7 c12 -10 24 -34 28 -60 6 -39 5 -44 -14 -49 -12
-3 -21 -10 -21 -16 0 -6 -9 -20 -19 -31 -16 -17 -18 -28 -12 -56 l8 -35 19 32
c10 18 31 38 47 44 31 13 110 6 115 -10 2 -6 10 -11 17 -11 34 0 48 -99 20
-136 -21 -28 -18 -43 10 -54 14 -5 25 -15 26 -22 4 -85 -4 -225 -14 -237 -7
-8 -12 -26 -12 -40 0 -24 -4 -26 -40 -26 -36 0 -42 4 -57 35 -20 41 -23 59 -6
42 15 -15 68 -16 68 0 0 6 -7 19 -16 29 -12 14 -16 41 -17 115 -1 88 -3 99
-24 120 -30 30 -37 30 -30 2 4 -14 0 -29 -11 -41 -9 -10 -17 -26 -17 -35 0
-21 -35 -29 -46 -10 -5 7 -23 13 -41 13 -37 0 -45 18 -47 96 -1 30 -6 49 -15
52 -19 8 -21 133 -2 152 7 8 17 39 20 69 6 41 13 60 29 71 26 19 27 18 54 -3z
m-1042 -9 c4 -12 -1 -24 -16 -36 -22 -17 -24 -18 -36 -1 -8 12 -9 22 -2 35 12
24 45 25 54 2z m291 -29 c-3 -8 -1 -23 6 -33 14 -24 2 -79 -15 -62 -16 16 -44
14 -51 -5 -3 -9 -6 -31 -6 -49 0 -19 -5 -46 -12 -60 -9 -21 -9 -28 1 -35 19
-11 5 -30 -22 -30 -30 0 -77 -67 -56 -81 8 -5 17 -9 22 -9 4 0 7 -7 7 -15 0
-26 -35 -16 -53 15 -20 33 -38 38 -57 15 -7 -8 -16 -15 -20 -15 -15 0 -90 -76
-90 -91 0 -9 -9 -24 -21 -35 -11 -10 -27 -34 -35 -52 -7 -19 -23 -36 -34 -39
-30 -8 -27 -49 5 -57 40 -10 38 -14 -82 -144 -7 -7 -13 -24 -13 -36 0 -13 -10
-38 -22 -57 -13 -19 -33 -55 -46 -81 -29 -59 -38 -65 -53 -36 -12 22 -13 22
-21 -16 -5 -25 -4 -43 3 -52 7 -9 6 -20 -7 -39 -9 -14 -14 -28 -10 -32 3 -3 6
-1 6 5 0 7 7 12 15 12 9 0 15 9 15 21 0 12 5 19 13 17 15 -6 22 -38 8 -38 -20
0 -51 -34 -51 -57 0 -31 -37 -52 -90 -50 -39 2 -46 5 -55 30 -8 24 -6 31 8 42
9 7 17 24 17 38 0 14 4 28 9 31 5 3 12 21 15 41 4 19 19 49 34 66 15 18 27 40
27 48 0 9 10 20 23 26 13 6 20 16 17 23 -7 20 33 72 55 72 25 0 43 33 28 48
-9 9 -7 16 4 29 9 10 18 27 20 38 2 11 12 21 23 23 45 7 50 13 25 25 -29 14
-39 69 -19 93 7 9 13 30 13 47 1 24 6 32 21 35 11 2 27 6 35 9 8 3 22 7 30 7
9 1 16 13 18 34 2 17 7 32 13 32 5 0 9 5 9 11 0 13 70 79 84 79 17 0 46 32 46
51 0 19 28 39 52 39 7 -1 22 -15 33 -32 11 -17 26 -34 34 -36 18 -6 4 59 -17
74 -11 8 -13 21 -8 55 6 37 15 50 57 82 28 21 53 46 56 55 12 34 24 42 45 31
11 -6 17 -17 14 -25z m-191 -45 c0 -18 -6 -25 -24 -27 -38 -6 -50 16 -22 39
30 24 46 20 46 -12z m-95 -76 c0 -42 -4 -51 -33 -74 -18 -15 -52 -36 -75 -48
-23 -12 -52 -38 -66 -59 -29 -47 -52 -66 -67 -57 -17 11 -3 75 21 92 11 8 26
26 34 41 8 15 32 41 55 57 22 17 43 38 47 48 5 16 54 45 77 47 4 0 7 -21 7
-47z m1376 6 c1 -13 5 -32 9 -42 10 -23 -20 -67 -44 -67 -35 0 -50 12 -73 56
-12 24 -27 44 -35 44 -7 0 -13 7 -13 16 0 14 7 15 46 9 26 -3 53 -9 60 -12 8
-3 17 2 20 11 9 24 29 14 30 -15z m122 -74 c-2 -23 -9 -31 -27 -33 -38 -6 -55
44 -30 90 11 20 11 20 35 -3 18 -17 24 -32 22 -54z m100 -50 c15 -33 -9 -61
-39 -45 -22 12 -22 11 -9 44 12 33 33 33 48 1z m-280 -48 c2 -10 -3 -17 -12
-17 -10 0 -16 9 -16 21 0 24 23 21 28 -4z m130 -3 c18 -8 32 -20 32 -24 0 -5
14 -7 30 -3 32 6 70 -17 70 -43 0 -7 7 -17 17 -22 21 -12 10 -42 -16 -42 -10
0 -21 7 -25 15 -7 19 -56 20 -56 1 0 -7 14 -16 30 -19 17 -4 30 -13 30 -21 0
-20 36 -39 60 -31 15 5 21 0 26 -21 4 -15 15 -35 25 -45 12 -12 19 -33 19 -59
0 -36 -3 -41 -36 -55 -39 -16 -54 -13 -54 11 0 33 -53 123 -74 126 -16 2 -22
13 -28 47 -9 52 -8 52 -50 60 -27 5 -37 15 -56 54 -18 37 -20 52 -12 67 13 24
27 25 68 4z m-869 -23 c7 -5 11 -14 7 -19 -4 -6 -1 -20 6 -31 16 -27 3 -39
-25 -22 -15 10 -22 10 -25 2 -2 -6 -10 -11 -18 -11 -20 0 -18 49 3 72 18 20
31 22 52 9z m-929 -62 c0 -36 -54 -109 -82 -109 -42 0 -35 59 13 108 41 42 69
43 69 1z m2084 -10 c12 -11 36 -30 55 -42 19 -12 43 -33 53 -47 23 -31 15 -62
-15 -58 -19 3 -38 27 -69 86 -6 13 -25 26 -40 29 -32 6 -42 18 -34 38 8 21 25
19 50 -6z m-1884 -24 c0 -15 -6 -25 -14 -25 -19 0 -28 14 -20 34 10 25 34 19
34 -9z m1530 -1 c0 -15 11 -37 28 -52 47 -45 66 -84 68 -135 2 -27 9 -56 17
-65 8 -10 17 -30 19 -45 6 -31 4 -31 -57 -13 -34 10 -44 -5 -37 -54 6 -42 6
-43 12 -15 4 23 11 31 31 33 14 2 31 -4 39 -12 7 -9 28 -16 50 -16 24 0 43 -7
55 -20 17 -19 17 -21 2 -38 -19 -20 -22 -57 -7 -67 5 -3 14 -24 20 -45 10 -39
33 -53 43 -27 3 6 6 1 6 -13 1 -14 -8 -33 -19 -43 -26 -22 -25 -44 1 -52 15
-5 18 -10 10 -18 -6 -6 -11 -24 -11 -39 0 -24 -4 -28 -29 -28 -25 0 -31 5 -41
38 -7 20 -17 42 -24 47 -20 18 -56 74 -56 87 0 8 -7 23 -15 35 -8 12 -19 39
-23 60 -9 43 -40 59 -49 24 -9 -34 -33 -26 -33 11 0 17 -8 40 -17 50 -23 26
-27 136 -6 160 14 15 14 20 2 35 -8 10 -22 24 -31 31 -22 16 -22 29 -2 67 12
22 14 45 10 88 -6 56 -5 57 19 57 20 0 25 -5 25 -26z m-1300 6 c0 -5 -9 -10
-21 -10 -11 0 -17 5 -14 10 3 6 13 10 21 10 8 0 14 -4 14 -10z m502 -126 c-11
-83 -27 -108 -74 -119 -26 -7 -28 -5 -28 27 0 19 7 49 16 67 9 18 18 51 20 74
5 55 30 75 58 48 18 -18 18 -26 8 -97z m351 102 c3 -7 0 -22 -8 -33 -7 -10
-16 -45 -20 -77 -10 -81 -57 -127 -71 -70 -7 27 21 161 38 182 14 16 55 15 61
-2z m-792 -20 c-7 -8 -11 -30 -9 -48 l4 -33 12 28 c13 30 29 35 38 12 8 -20
-13 -45 -37 -45 -12 0 -19 -9 -21 -27 -2 -23 -8 -28 -30 -28 -34 0 -48 -14
-25 -26 9 -6 24 -24 33 -41 16 -31 16 -32 -11 -54 -26 -20 -27 -24 -12 -38 33
-33 -18 -110 -73 -108 -30 1 -30 -1 -24 -33 12 -64 -35 -275 -61 -275 -7 0
-24 12 -39 26 -22 23 -28 25 -42 13 -13 -10 -17 -10 -25 2 -13 21 -12 23 21
48 27 20 30 26 24 57 -8 43 11 114 47 176 29 48 28 58 -3 58 -12 0 -23 -11
-29 -30 -12 -32 -27 -38 -47 -18 -20 20 -14 48 13 58 14 5 25 14 25 20 0 5 18
10 39 10 40 0 62 14 38 23 -7 3 -25 3 -40 0 -22 -4 -27 -2 -27 16 0 14 6 21
20 21 11 0 20 4 20 8 0 5 6 17 14 28 15 19 15 19 30 -1 15 -19 17 -19 30 -2 7
9 23 17 35 17 28 0 27 14 -3 28 -14 6 -24 19 -24 29 0 10 -2 25 -6 34 -9 20
56 77 97 86 15 3 30 10 33 14 3 5 10 9 16 9 7 0 6 -5 -1 -14z m-418 -54 c6
-28 3 -34 -19 -44 -15 -7 -35 -30 -45 -53 -10 -22 -25 -51 -33 -65 -8 -14 -17
-33 -20 -42 -3 -10 -13 -18 -22 -18 -10 0 -29 -14 -44 -32 -18 -21 -32 -29
-43 -25 -36 14 -10 124 35 148 19 10 79 64 122 109 36 37 59 60 61 58 1 -2 5
-18 8 -36z m683 26 c4 -6 9 -37 11 -67 2 -53 -14 -91 -39 -91 -12 0 -78 70
-78 81 0 5 11 9 25 9 15 0 25 6 25 14 0 48 38 84 56 54z m620 -88 c22 0 57
-48 51 -72 -3 -13 -10 -38 -14 -57 -11 -43 -29 -50 -44 -17 -7 14 -16 26 -21
26 -4 0 -11 1 -14 3 -12 4 -34 -87 -24 -97 6 -6 10 -29 10 -53 0 -36 -3 -43
-19 -43 -12 0 -21 9 -25 25 -4 14 -11 25 -16 25 -14 0 -12 48 2 52 8 3 11 23
9 56 -2 40 1 53 13 58 19 7 22 90 5 128 -7 14 -9 32 -5 42 5 13 13 8 44 -30
20 -25 42 -46 48 -46z m-776 -29 c7 -19 8 -36 3 -48 -5 -10 -11 -37 -12 -60
-2 -34 1 -43 13 -43 13 0 16 12 16 55 0 51 2 55 23 55 13 0 33 -10 45 -23 20
-21 22 -33 20 -118 -1 -79 -5 -98 -21 -116 -11 -13 -29 -23 -39 -23 -13 0 -18
-8 -20 -27 0 -16 -2 -44 -3 -63 -3 -52 4 -70 27 -70 15 0 18 4 13 18 -4 9 -9
34 -12 54 -4 28 -2 39 10 44 42 16 91 -57 67 -102 -11 -20 -11 -28 0 -49 17
-32 7 -42 -26 -24 -23 12 -27 11 -40 -6 -12 -16 -12 -22 1 -39 27 -37 27 -45
3 -75 -30 -38 -54 -39 -77 -1 -16 26 -20 28 -31 15 -18 -22 -48 -2 -69 46 -10
22 -26 45 -36 53 -13 9 -15 19 -10 37 8 23 8 23 20 -10 16 -48 38 -60 64 -37
21 19 21 30 -1 134 -8 38 -16 52 -29 52 -9 0 -20 7 -23 16 -4 11 -13 14 -30
10 -29 -7 -40 6 -32 40 5 20 13 24 43 24 37 0 55 -14 73 -57 5 -13 18 -23 30
-23 21 0 27 15 10 25 -6 4 -8 15 -5 24 6 19 -10 37 -48 56 -28 14 -34 42 -10
47 16 3 18 15 18 104 0 105 10 134 45 134 10 0 23 -13 30 -29z m1474 -116
c-23 -18 -34 -19 -34 -4 0 18 33 39 44 28 6 -5 3 -14 -10 -24z m74 -11 c-4
-35 -28 -42 -47 -13 -12 20 -11 24 10 40 29 21 42 12 37 -27z m-1323 2 c9 -13
13 -31 9 -41 -6 -16 -3 -17 21 -11 23 6 27 4 21 -10 -3 -9 -1 -23 5 -31 9 -10
9 -17 1 -25 -19 -19 -14 -45 11 -52 36 -9 57 -65 57 -150 0 -61 -3 -76 -21
-92 -20 -18 -21 -18 -35 1 -8 10 -14 25 -14 32 0 7 -8 17 -19 22 -22 12 -38
95 -22 115 13 15 -12 56 -34 56 -25 0 -25 18 -1 47 l24 29 -25 22 c-24 22 -25
22 -30 2 -6 -24 -21 -26 -30 -4 -4 10 0 20 10 26 11 6 17 22 17 48 0 33 3 40
20 40 11 0 26 -11 35 -24z m793 -24 c2 -7 -2 -12 -8 -12 -13 0 -12 -9 14 -104
17 -61 15 -76 -6 -58 -7 5 -24 12 -38 14 -21 2 -26 9 -28 41 -2 21 2 45 9 53
9 11 7 14 -12 14 -40 0 -55 -15 -42 -42 8 -18 7 -31 -4 -52 -14 -27 -13 -31
18 -75 19 -25 46 -57 61 -69 37 -31 36 -56 -2 -72 -16 -7 -30 -18 -30 -26 0
-7 -9 -29 -21 -48 -17 -29 -24 -34 -42 -27 -12 4 -30 19 -40 33 -17 22 -19 46
-21 177 -1 110 -4 152 -13 156 -16 6 -17 32 -1 41 7 4 28 11 48 14 22 4 34 11
32 20 -2 7 -1 18 1 24 6 15 120 13 125 -2z m619 -81 c33 -25 48 -71 37 -115
-8 -33 -37 -41 -78 -22 -25 12 -35 24 -39 48 -4 18 -9 47 -12 64 -4 18 -2 41
4 52 12 23 27 19 88 -27z m-2067 -58 c0 -7 -7 -13 -15 -13 -16 0 -19 9 -9 35
5 13 8 14 15 3 5 -7 9 -19 9 -25z m1133 -68 c5 -22 15 -65 22 -95 15 -62 13
-70 -20 -70 -40 0 -65 44 -65 112 0 33 5 68 11 79 17 32 43 19 52 -26z m-1163
-1 c0 -8 -4 -14 -10 -14 -5 0 -10 9 -10 21 0 11 5 17 10 14 6 -3 10 -13 10
-21z m1645 -15 c5 -14 2 -25 -6 -30 -16 -10 -24 -3 -34 29 -5 18 -2 22 14 22
11 0 22 -9 26 -21z m-1305 -13 c0 -25 -12 -46 -25 -46 -14 0 -27 38 -19 52 9
14 44 9 44 -6z m-343 -22 c8 -22 -15 -44 -26 -25 -10 16 -4 41 10 41 5 0 12
-7 16 -16z m1533 -35 c0 -5 -7 -9 -15 -9 -15 0 -20 12 -9 23 8 8 24 -1 24 -14z
m15 -95 c14 -22 15 -28 4 -35 -28 -17 -79 -7 -79 16 0 17 28 45 45 45 7 0 20
-12 30 -26z m230 1 c0 -5 -15 -11 -32 -13 -25 -3 -33 1 -33 13 0 12 8 16 33
13 17 -2 32 -7 32 -13z m-1717 -57 c3 -14 -3 -18 -27 -18 -25 0 -31 4 -31 21
0 16 5 20 27 17 17 -2 29 -10 31 -20z"/>
<path d="M2689 4944 c-10 -27 -4 -64 10 -64 13 0 34 58 27 75 -8 23 -25 18
-37 -11z"/>
<path d="M2726 4818 c-14 -46 -13 -56 7 -62 25 -6 24 -7 32 26 5 21 2 29 -14
38 -16 8 -22 8 -25 -2z"/>
<path d="M2777 4681 c-17 -34 -14 -56 8 -65 16 -6 20 -1 28 35 4 15 1 33 -7
44 -12 17 -14 16 -29 -14z"/>
<path d="M2790 4435 c-14 -8 -43 -14 -66 -15 -29 0 -49 -7 -68 -25 -44 -40
-28 -75 18 -40 11 8 37 15 59 15 26 0 49 8 73 26 54 41 41 72 -16 39z"/>
<path d="M2512 4398 c-5 -7 -15 -29 -22 -49 -10 -28 -24 -42 -57 -58 -34 -16
-43 -26 -43 -46 0 -19 5 -25 20 -25 30 0 113 89 133 143 3 9 12 17 19 17 8 1
5 7 -6 15 -24 18 -31 19 -44 3z"/>
<path d="M2575 4329 c-10 -15 3 -25 16 -12 7 7 7 13 1 17 -6 3 -14 1 -17 -5z"/>
<path d="M2703 4312 c-16 -12 -21 -23 -17 -39 8 -28 21 -29 54 -3 35 28 40 25
40 -20 0 -27 -5 -43 -15 -46 -10 -4 -15 -20 -15 -45 0 -42 13 -51 30 -19 12
23 60 50 89 50 31 0 38 43 12 69 -12 12 -21 32 -21 46 0 27 -6 30 -44 15 -16
-6 -27 -6 -31 0 -10 16 -58 11 -82 -8z m151 -83 c-10 -17 -44 -10 -44 9 0 10
3 22 7 25 9 9 44 -23 37 -34z"/>
<path d="M2622 4290 c-18 -29 -15 -40 12 -40 16 0 26 7 29 22 11 40 -19 53
-41 18z"/>
<path d="M2533 4229 c-13 -5 -23 -15 -23 -24 0 -18 -56 -45 -93 -45 -15 0 -28
9 -35 23 -10 20 -11 19 -11 -13 -1 -63 39 -160 66 -160 8 0 11 18 10 58 -2 52
0 57 20 60 12 2 36 16 53 32 17 16 40 32 51 35 10 4 19 10 19 15 0 17 -34 28
-57 19z"/>
<path d="M2692 4174 c-7 -12 -22 -16 -59 -16 -48 2 -52 0 -78 -38 -15 -22 -36
-42 -47 -46 -25 -8 -19 -38 9 -42 15 -2 29 7 44 27 28 37 39 39 39 6 0 -18 7
-26 25 -31 19 -5 30 0 51 25 14 17 32 31 39 31 26 0 28 23 4 40 -19 15 -21 21
-11 33 8 10 9 17 3 21 -5 4 -14 -1 -19 -10z"/>
<path d="M2312 4073 c-18 -4 -21 -9 -16 -31 4 -15 10 -31 15 -36 13 -14 49 23
49 51 0 23 -4 24 -48 16z"/>
<path d="M2141 3989 c-19 -36 -20 -45 -9 -75 13 -38 32 -44 47 -16 11 20 3
132 -9 132 -5 0 -18 -18 -29 -41z"/>
<path d="M2576 4014 c-7 -18 0 -34 15 -34 12 0 12 37 0 44 -5 3 -12 -1 -15
-10z"/>
<path d="M2359 3983 c-13 -36 -28 -44 -61 -37 -40 8 -36 -17 6 -38 33 -16 56
-10 56 15 0 5 11 18 25 29 29 22 32 43 9 52 -23 9 -24 8 -35 -21z"/>
<path d="M2415 3909 c-9 -17 -14 -33 -11 -37 3 -3 6 0 6 6 0 7 9 12 20 12 15
0 20 7 20 25 0 34 -16 31 -35 -6z"/>
<path d="M2061 3861 c-9 -15 -9 -32 -1 -62 13 -49 31 -47 44 5 8 31 7 40 -11
58 l-21 20 -11 -21z"/>
<path d="M2171 3816 l-23 -25 40 -40 39 -40 12 25 c16 36 14 46 -18 76 l-28
28 -22 -24z"/>
<path d="M1990 3758 c-12 -14 -20 -33 -18 -48 2 -20 8 -25 29 -22 19 2 29 -4
36 -20 20 -43 26 7 7 57 -21 57 -28 61 -54 33z"/>
<path d="M2099 3748 c-1 -2 -3 -28 -5 -59 -3 -53 -1 -57 24 -68 21 -10 27 -10
30 -1 3 7 12 20 21 29 10 10 15 23 13 30 -9 26 -77 82 -83 69z"/>
<path d="M1915 3658 c-8 -42 0 -77 15 -62 6 6 6 28 1 54 l-8 45 -8 -37z"/>
<path d="M1808 3538 c31 -7 42 -14 42 -28 0 -10 5 -22 10 -25 18 -11 11 37 -7
51 -10 7 -34 13 -53 13 l-35 -1 43 -10z"/>
<path d="M3720 4745 c0 -8 7 -15 15 -15 8 0 15 7 15 15 0 8 -7 15 -15 15 -8 0
-15 -7 -15 -15z"/>
<path d="M2477 4812 c-11 -12 -15 -34 -14 -75 1 -31 3 -57 5 -57 14 0 42 24
42 35 0 8 11 17 25 21 19 5 25 13 25 34 0 24 -3 27 -25 22 -23 -4 -30 4 -26
31 2 13 -16 7 -32 -11z"/>
<path d="M4166 4676 c3 -8 12 -17 20 -20 11 -4 12 -2 1 14 -14 23 -29 27 -21
6z"/>
<path d="M4155 4601 c-6 -11 9 -23 19 -14 9 9 7 23 -3 23 -6 0 -12 -4 -16 -9z"/>
<path d="M4096 4578 c-11 -15 -13 -25 -6 -32 14 -14 45 6 45 29 0 27 -21 29
-39 3z"/>
<path d="M3252 4329 l-23 -29 26 -34 c16 -21 22 -37 16 -41 -14 -8 -14 -52 -1
-60 6 -3 14 5 19 18 6 14 15 28 20 32 16 9 13 71 -4 85 -8 7 -15 21 -15 31 0
29 -13 28 -38 -2z"/>
<path d="M3136 4005 c-3 -9 3 -19 14 -25 21 -11 25 -4 14 24 -8 20 -20 21 -28
1z"/>
<path d="M4061 4273 c-22 -22 -40 -32 -51 -28 -11 3 -20 -1 -24 -11 -9 -23 0
-30 18 -15 11 9 20 10 35 2 26 -14 51 -14 51 0 0 6 9 22 20 36 46 58 6 71 -49
16z"/>
<path d="M3717 4063 c3 -32 6 -59 7 -60 1 -1 12 0 24 4 16 4 22 13 22 34 0 19
5 29 15 29 8 0 15 5 15 11 0 7 -10 9 -25 6 -18 -3 -29 1 -36 14 -18 35 -28 19
-22 -38z"/>
<path d="M3504 3858 c-9 -15 7 -25 49 -32 36 -7 38 -6 35 15 -2 17 -10 22 -41
24 -21 1 -40 -2 -43 -7z"/>
<path d="M3764 3766 c-18 -14 -18 -15 -1 -22 22 -8 46 11 31 26 -7 7 -17 5
-30 -4z"/>
<path d="M1426 3306 c7 -19 38 -22 32 -3 -3 6 -12 13 -21 15 -12 2 -15 -1 -11
-12z"/>
<path d="M1296 3028 c17 -28 59 -78 67 -78 4 0 7 13 7 29 0 19 -8 34 -25 45
-29 19 -59 22 -49 4z"/>
<path d="M1341 2921 c-15 -28 -6 -87 14 -95 16 -6 20 -56 6 -71 -5 -6 -12 -25
-16 -43 -5 -24 -3 -33 9 -38 21 -8 20 -43 -1 -66 -15 -17 -15 -20 -3 -28 8 -6
27 -10 42 -10 24 0 27 -4 30 -42 3 -39 6 -43 31 -46 28 -3 29 -2 22 28 -6 29
-5 31 14 25 18 -5 21 -2 21 21 0 22 -2 24 -15 14 -39 -33 -116 58 -79 94 8 8
14 24 14 35 0 28 20 37 27 12 7 -29 23 -26 23 4 0 17 -7 28 -22 34 -13 5 -31
18 -41 28 -22 25 -13 56 14 48 14 -5 19 -1 19 14 0 15 -6 21 -23 21 -27 0 -51
23 -65 60 l-9 24 -12 -23z"/>
<path d="M1157 2568 c-32 -25 -12 -127 26 -128 10 0 9 52 -2 69 -6 9 -6 22 1
34 13 25 -3 41 -25 25z"/>
<path d="M1400 2431 c-15 -29 -13 -31 25 -31 31 0 35 3 35 25 0 20 -5 25 -25
25 -14 0 -29 -8 -35 -19z"/>
<path d="M1722 2258 c5 -15 37 -18 41 -3 1 6 -9 12 -22 13 -16 3 -22 -1 -19
-10z"/>
<path d="M1610 2152 c0 -29 26 -62 48 -62 21 0 13 42 -14 66 -32 30 -34 30
-34 -4z"/>
<path d="M1706 2133 c-3 -3 -6 -15 -6 -25 0 -10 -7 -21 -15 -24 -9 -4 -15 -19
-15 -38 0 -17 -4 -38 -10 -46 -5 -8 -5 -19 0 -25 5 -6 10 -31 12 -55 2 -32 7
-45 18 -45 15 0 20 35 20 137 0 25 4 49 10 53 5 3 10 19 10 35 0 29 -12 45
-24 33z"/>
<path d="M1490 2092 c0 -10 5 -23 11 -29 8 -8 6 -18 -6 -37 -13 -20 -26 -26
-51 -26 -27 0 -34 -4 -34 -19 0 -10 7 -24 15 -31 8 -7 15 -18 15 -25 0 -14
-27 -28 -40 -20 -4 3 -23 0 -41 -6 -19 -6 -40 -13 -47 -15 -10 -3 -10 -9 -2
-24 13 -23 45 -27 54 -5 3 10 19 15 44 15 23 0 45 -6 52 -15 17 -21 30 -19 30
4 0 11 9 22 20 26 11 3 19 14 18 23 -4 47 5 74 33 107 36 41 42 42 57 13 10
-23 11 -23 11 5 1 15 -3 27 -9 27 -5 0 -10 8 -10 19 0 19 -34 31 -91 31 -21 0
-29 -5 -29 -18z"/>
<path d="M1280 1986 c-4 -13 -20 -26 -34 -30 -38 -9 -33 -39 7 -54 42 -15 54
-15 39 0 -20 20 -14 45 16 67 23 17 25 22 12 31 -23 15 -30 12 -40 -14z"/>
<path d="M1603 1929 c-19 -22 -23 -39 -23 -97 0 -41 5 -74 11 -78 12 -7 69 50
69 70 0 6 -6 18 -12 24 -7 7 -15 34 -18 60 l-5 49 -22 -28z"/>
<path d="M1735 1930 c-8 -13 4 -32 16 -25 12 8 12 35 0 35 -6 0 -13 -4 -16
-10z"/>
<path d="M1483 1824 c-3 -9 -1 -31 5 -48 18 -49 15 -56 -23 -56 l-35 0 16 -25
c19 -29 32 -31 50 -7 11 16 13 15 23 -10 6 -16 17 -28 26 -28 19 0 20 34 0 50
-11 9 -12 17 -5 30 15 28 12 48 -12 80 -25 34 -36 37 -45 14z"/>
<path d="M1334 1789 c-3 -6 0 -18 9 -26 11 -12 22 -13 44 -6 l28 10 -32 16
c-38 20 -40 20 -49 6z"/>
<path d="M2127 2963 c-10 -9 -9 -23 2 -23 5 0 11 7 15 15 5 15 -5 20 -17 8z"/>
<path d="M2160 2599 c0 -11 5 -17 10 -14 6 3 10 13 10 21 0 8 -4 14 -10 14 -5
0 -10 -9 -10 -21z"/>
<path d="M2040 2520 c0 -13 -12 -28 -30 -38 -34 -20 -39 -32 -10 -32 10 0 24
-9 30 -21 9 -16 14 -18 26 -8 8 6 14 24 14 39 0 15 9 35 20 45 23 21 12 35
-27 35 -17 0 -23 -6 -23 -20z"/>
<path d="M1890 1295 c0 -9 6 -12 15 -9 8 4 12 10 9 15 -8 14 -24 10 -24 -6z"/>
<path d="M2146 1015 c-21 -32 -20 -45 3 -45 20 0 31 -18 31 -51 0 -33 19 -21
26 16 5 26 2 41 -10 54 -9 10 -16 23 -16 29 0 22 -18 21 -34 -3z"/>
<path d="M766 775 c-14 -21 -14 -25 -2 -25 16 0 46 26 46 41 0 18 -28 8 -44
-16z"/>
<path d="M2577 5493 c-13 -12 -7 -40 14 -67 27 -34 36 -33 44 6 6 26 3 34 -16
49 -26 20 -32 22 -42 12z"/>
<path d="M2370 5383 c0 -5 -12 -15 -26 -22 -23 -10 -26 -16 -21 -47 4 -25 2
-37 -9 -41 -7 -3 -14 -14 -14 -24 0 -14 7 -19 28 -19 33 0 57 38 46 72 -4 14
0 21 15 25 26 7 27 25 1 48 -11 10 -20 14 -20 8z"/>
<path d="M2193 5294 c-3 -8 0 -26 7 -38 7 -13 9 -33 5 -45 -8 -27 22 -30 40
-4 11 14 10 19 -2 28 -13 10 -13 15 -2 34 12 18 12 23 -1 31 -22 14 -40 12
-47 -6z"/>
<path d="M2061 5206 c-13 -15 -4 -26 21 -26 21 0 24 25 4 33 -8 3 -19 0 -25
-7z"/>
<path d="M2126 5213 c-12 -12 -5 -23 14 -23 11 0 20 4 20 9 0 11 -26 22 -34
14z"/>
<path d="M3162 5085 c-21 -16 -31 -55 -13 -55 12 0 43 49 39 61 -2 5 -13 2
-26 -6z"/>
<path d="M3362 4838 c-17 -17 -15 -26 10 -39 18 -10 24 -8 35 7 7 10 13 24 13
31 0 16 -42 17 -58 1z"/>
<path d="M5086 3544 c-46 -49 -59 -84 -67 -184 -9 -112 -19 -162 -45 -212 -56
-108 -69 -127 -91 -139 -14 -7 -29 -21 -34 -31 -5 -10 -18 -18 -29 -18 -10 0
-28 -13 -40 -30 -14 -20 -30 -30 -46 -30 -57 0 -112 -22 -150 -61 -55 -57 -88
-54 -253 18 -29 13 -38 13 -70 0 -122 -49 -179 -57 -216 -33 -13 9 -34 16 -47
16 -12 0 -35 12 -50 27 -25 23 -32 26 -48 15 -25 -16 -30 -15 -30 3 0 8 8 15
17 15 13 0 14 3 5 12 -9 9 -17 9 -36 -1 -28 -15 -37 -57 -25 -110 10 -44 3
-69 -27 -98 -13 -12 -24 -27 -24 -33 0 -17 38 -49 67 -56 59 -14 63 -39 17
-100 -13 -17 -31 -50 -40 -75 -18 -50 -21 -160 -5 -202 6 -16 11 -45 11 -66 0
-41 -13 -58 -67 -85 -34 -17 -83 -64 -83 -79 0 -5 -13 -26 -28 -46 -30 -38
-68 -160 -58 -186 3 -8 15 -15 26 -15 26 0 90 -63 90 -89 0 -11 -9 -25 -19
-31 -26 -13 -51 11 -51 49 0 29 -16 51 -36 51 -7 0 -15 -19 -19 -42 -8 -50
-22 -100 -41 -146 -17 -40 -18 -72 -3 -72 8 0 7 -6 -2 -17 -8 -9 -13 -25 -11
-35 2 -11 -9 -37 -23 -59 l-27 -38 26 -31 c16 -20 26 -44 26 -63 0 -18 9 -45
20 -62 11 -16 20 -44 20 -61 0 -31 -25 -64 -49 -64 -10 0 -29 -15 -103 -83
-28 -26 -55 -13 -81 39 -13 28 -30 47 -44 50 -29 8 -74 -10 -103 -41 -18 -19
-21 -30 -15 -63 7 -46 -5 -60 -62 -69 -64 -10 -91 -29 -103 -72 -14 -52 -30
-65 -63 -50 -39 18 -74 4 -82 -31 -10 -44 2 -69 40 -84 18 -8 38 -23 44 -35 9
-16 7 -23 -11 -35 -12 -9 -30 -16 -40 -16 -9 0 -28 -11 -42 -24 -21 -19 -26
-32 -26 -74 0 -41 4 -54 22 -66 34 -24 49 -20 101 29 26 25 53 45 60 45 17 0
37 -21 37 -38 0 -8 14 -31 30 -52 17 -21 30 -43 30 -48 0 -18 -31 -42 -54 -42
-27 0 -66 -39 -66 -67 0 -35 31 -53 94 -53 60 0 91 14 134 60 42 45 132 55
132 15 0 -16 33 -45 51 -45 22 0 69 48 69 70 0 14 7 20 24 20 13 0 29 7 36 15
21 25 47 17 70 -21 17 -26 20 -38 11 -47 -30 -30 7 -77 62 -77 42 0 67 17 67
45 0 25 -14 33 -25 15 -13 -22 -34 -9 -37 22 -2 24 -10 36 -30 46 -31 14 -40
62 -13 62 8 0 15 -4 15 -10 0 -5 20 -18 44 -28 31 -14 45 -27 50 -47 5 -18 12
-25 21 -21 9 3 37 -17 74 -55 l59 -61 93 7 c52 4 101 13 109 20 8 7 38 21 67
31 46 16 58 17 100 5 97 -26 145 -24 218 9 37 16 75 30 85 30 10 0 32 12 49
26 31 26 32 26 66 10 23 -11 40 -29 50 -52 13 -33 37 -45 50 -25 3 6 24 9 46
8 31 -1 46 -8 64 -28 19 -24 28 -27 62 -22 44 6 73 -13 73 -48 0 -16 6 -20 28
-17 24 3 27 7 30 46 3 45 11 49 56 32 35 -13 86 6 86 31 0 11 -7 22 -15 25 -9
4 -15 19 -15 40 0 32 2 34 36 34 36 0 36 0 30 35 -5 27 -3 37 9 41 9 4 21 2
28 -5 21 -21 47 -13 47 14 0 35 23 41 60 15 51 -37 30 -89 -25 -60 -20 11 -27
11 -40 0 -43 -36 7 -63 78 -42 l50 14 38 -42 c26 -28 44 -40 55 -36 8 3 20 6
25 6 5 0 9 11 9 25 0 25 14 33 25 15 3 -5 19 -10 36 -10 26 0 29 3 29 30 0 24
5 31 27 36 17 5 28 3 31 -4 2 -7 11 -21 21 -33 16 -20 20 -20 60 -8 l43 13 -6
50 c-3 28 -13 72 -22 97 l-17 47 26 32 c23 26 26 38 22 80 -2 27 -8 57 -13 67
-5 10 -12 35 -15 55 -5 31 -2 40 14 48 10 6 19 21 19 34 0 17 -11 28 -50 46
-58 27 -65 52 -21 75 16 8 31 20 34 27 7 20 -12 48 -39 58 -24 9 -34 30 -14
30 16 0 11 47 -6 54 -9 3 -34 6 -56 6 -32 0 -39 3 -34 15 3 8 9 21 12 29 6 15
-22 26 -103 42 -21 4 -40 20 -62 50 -17 25 -31 47 -31 50 0 3 -18 26 -39 51
-40 44 -81 114 -81 135 0 6 -6 19 -13 27 -23 27 -47 105 -47 152 0 37 5 50 30
74 26 25 30 35 30 86 0 55 1 58 38 80 31 19 50 22 114 21 70 -2 78 0 89 19 14
27 -12 66 -61 91 -18 9 -38 22 -43 27 -6 6 -24 11 -40 11 -19 0 -48 15 -86 45
-31 25 -61 45 -65 45 -12 0 -120 73 -133 90 -6 8 -22 42 -34 74 -20 56 -20 61
-5 87 12 20 16 53 16 126 0 103 -5 118 -57 173 -32 33 -29 54 14 112 69 95
100 185 89 261 -5 39 11 145 35 223 5 17 9 58 9 92 0 92 -52 167 -122 179 -30
4 -39 1 -62 -23z m119 -73 c3 -8 -1 -21 -9 -29 -12 -13 -12 -20 0 -55 8 -23
12 -47 10 -54 -7 -17 -70 -27 -95 -14 -27 15 -27 41 0 48 18 5 20 11 15 48 -5
33 -3 47 14 68 18 23 24 25 40 14 11 -6 22 -18 25 -26z m-15 -206 c11 -13 9
-20 -9 -39 -13 -14 -35 -28 -49 -31 l-27 -8 33 -13 c33 -14 45 -51 20 -58 -56
-17 -55 -16 -20 -44 18 -15 32 -30 32 -34 0 -3 -14 -11 -32 -17 -24 -9 -29
-14 -20 -23 32 -32 -18 -107 -71 -109 -31 -2 -32 -2 -4 -6 39 -6 44 -28 11
-58 -19 -18 -38 -25 -65 -25 -22 0 -39 4 -39 9 0 5 -9 12 -19 16 -22 7 -35 44
-21 61 6 6 21 9 35 6 18 -3 25 0 25 11 0 9 -4 19 -10 22 -5 3 -10 15 -10 26 0
14 7 19 29 19 16 0 37 8 46 17 16 15 16 18 1 28 -25 19 -20 45 9 45 32 0 43
25 20 50 -22 25 -16 53 14 60 30 7 37 23 16 40 -18 15 -20 49 -2 51 6 1 24 2
39 3 15 1 30 5 34 9 11 11 20 8 34 -8z m-433 -445 c12 0 27 -9 33 -20 6 -11
21 -20 34 -20 31 0 38 -22 30 -87 -4 -34 -3 -53 4 -53 21 0 42 12 42 25 0 20
27 37 50 30 11 -3 20 -13 20 -21 0 -8 13 -23 30 -32 26 -15 30 -23 30 -59 0
-41 11 -55 25 -33 3 6 13 10 21 10 20 0 18 -40 -3 -55 -15 -11 -15 -15 -3 -30
9 -11 10 -19 3 -23 -6 -4 -13 -17 -17 -29 -6 -18 -12 -21 -41 -16 l-35 6 15
-36 c29 -69 8 -110 -34 -68 -12 12 -25 21 -31 21 -5 0 -10 9 -10 20 0 12 -10
24 -24 30 -13 5 -28 15 -33 23 -4 7 -15 16 -24 19 -22 8 -43 83 -29 107 14 27
13 41 -4 41 -7 0 -16 -10 -19 -22 -5 -18 -8 -20 -22 -8 -16 13 -16 15 0 26 22
16 17 87 -6 92 -10 2 -19 -5 -22 -18 -8 -31 -37 -25 -43 10 -4 16 -15 32 -25
35 -25 8 -24 32 0 40 11 3 23 15 26 26 4 10 11 19 16 19 16 0 10 38 -8 44 -15
6 -15 8 -3 16 9 6 19 5 24 0 6 -6 20 -10 33 -10z m-89 -27 c-3 -32 -35 -44
-45 -17 -4 11 1 22 12 30 28 21 37 17 33 -13z m-277 -9 c26 -31 68 -45 115
-38 47 7 54 0 32 -37 -11 -17 -10 -22 7 -35 11 -8 25 -12 32 -9 8 2 31 -5 53
-16 29 -15 40 -27 40 -44 0 -12 5 -37 11 -55 10 -27 9 -34 -4 -41 -8 -5 -18
-22 -22 -38 -3 -16 -17 -41 -31 -56 -23 -25 -32 -55 -16 -55 4 0 20 16 36 35
36 43 86 50 86 12 0 -23 -43 -77 -61 -77 -5 0 -15 -12 -22 -27 -6 -16 -18 -33
-26 -39 -10 -8 -11 -13 -3 -18 6 -4 33 13 59 39 26 24 55 45 64 45 22 0 33
-29 14 -36 -18 -7 -21 -58 -2 -52 6 3 13 14 15 26 3 22 22 32 22 12 0 -6 16
-8 41 -4 32 5 46 3 69 -14 25 -19 30 -20 41 -6 12 14 14 14 26 -2 20 -27 16
-54 -7 -54 -22 0 -41 -31 -23 -37 51 -17 51 -56 -1 -73 -32 -10 -33 -11 -22
-45 11 -36 26 -47 26 -19 0 8 11 30 24 47 13 18 27 49 30 70 4 23 13 37 21 37
10 0 15 11 15 35 0 28 5 37 24 44 13 5 26 17 30 26 4 11 15 15 33 13 25 -3 28
-8 31 -41 2 -25 -2 -45 -13 -57 -9 -10 -15 -23 -13 -31 2 -7 -4 -14 -13 -16
-11 -3 -18 5 -23 27 -5 29 -7 30 -22 16 -8 -9 -20 -16 -25 -16 -20 0 -7 -30
15 -36 40 -10 46 -54 8 -54 -10 0 -25 -9 -35 -20 -9 -11 -23 -20 -31 -20 -18
0 -26 -32 -14 -54 11 -20 51 -21 68 -1 17 20 38 19 44 -2 18 -66 17 -81 -4
-88 -30 -9 -24 -66 8 -80 17 -7 22 -18 22 -45 0 -19 3 -51 6 -71 5 -31 2 -38
-21 -53 -29 -19 -75 -15 -75 7 0 6 -14 20 -30 29 -22 13 -30 25 -30 45 0 15
-5 35 -10 43 -8 13 -11 12 -25 -5 -15 -19 -16 -18 -10 20 3 23 14 46 26 54 10
7 19 22 19 32 0 10 5 21 10 24 19 12 10 33 -19 45 -35 14 -51 7 -51 -23 0 -24
-34 -52 -50 -42 -6 4 -10 15 -10 26 0 13 -7 19 -24 19 -27 0 -38 -27 -29 -72
4 -23 10 -28 24 -25 14 4 21 -2 25 -19 9 -33 -1 -52 -28 -56 -15 -2 -23 -10
-23 -23 0 -16 6 -20 32 -18 26 2 41 -6 82 -46 45 -44 48 -50 33 -64 -14 -15
-14 -17 1 -23 10 -3 24 -1 31 5 11 9 20 7 39 -11 13 -13 36 -31 51 -41 14 -10
26 -26 26 -36 0 -10 7 -24 15 -31 9 -7 15 -29 15 -51 0 -25 6 -41 17 -47 22
-13 9 -42 -19 -43 l-23 0 23 -9 c12 -5 22 -13 22 -18 0 -17 -29 -80 -40 -87
-5 -3 -10 -15 -10 -25 0 -10 -12 -32 -26 -49 -20 -24 -24 -35 -15 -45 8 -10 7
-17 -4 -26 -21 -18 -13 -35 16 -35 22 0 24 -4 27 -57 l3 -58 -29 0 c-23 0 -31
5 -36 25 -5 18 -13 25 -31 25 -32 0 -34 -33 -3 -54 l22 -16 -26 0 c-28 0 -53
-23 -43 -40 3 -5 15 -10 25 -10 11 0 26 -12 34 -29 9 -16 28 -43 43 -62 15
-18 36 -49 45 -68 10 -21 17 -29 17 -19 1 10 10 23 21 30 12 8 20 24 20 40 0
20 8 32 30 43 31 16 37 29 20 40 -6 3 -13 -2 -17 -12 -14 -37 -63 -47 -63 -13
0 26 46 99 66 107 19 7 34 -13 34 -44 0 -16 6 -23 20 -23 13 0 20 7 20 19 0
11 6 23 12 28 21 12 88 12 89 0 1 -7 2 -19 3 -27 1 -8 9 -26 19 -40 l17 -25
26 33 c31 39 100 77 110 61 3 -6 1 -16 -5 -22 -16 -16 -14 -37 4 -37 9 0 15
-9 15 -25 0 -13 7 -28 15 -33 24 -13 10 -122 -16 -122 -10 0 -25 10 -34 23
-15 20 -14 23 5 39 24 19 25 31 5 48 -8 7 -15 21 -15 31 0 16 -26 39 -44 39
-10 0 -6 -24 9 -54 18 -33 18 -36 5 -36 -41 0 -78 -109 -46 -134 24 -18 31
-65 12 -72 -9 -3 -16 -17 -16 -31 0 -20 4 -24 17 -19 20 8 90 -63 100 -102 14
-58 -54 -40 -76 21 -6 15 -17 27 -26 27 -9 0 -27 11 -40 24 -19 20 -23 30 -18
65 5 34 3 41 -11 41 -9 0 -24 -9 -33 -20 -10 -11 -22 -20 -27 -20 -16 0 -56
51 -56 72 0 26 37 23 46 -4 6 -21 7 -21 21 5 7 15 18 27 23 27 6 0 10 7 10 15
0 8 -7 15 -15 15 -8 0 -15 7 -15 15 0 8 8 15 17 15 30 0 49 27 45 65 -2 19 -9
35 -15 35 -18 0 -47 -32 -47 -52 0 -14 -6 -19 -21 -16 -22 3 -32 16 -43 50 -5
17 -8 16 -40 -2 -36 -22 -53 -59 -33 -72 19 -12 34 -9 41 7 6 16 46 21 46 6 0
-6 -9 -16 -19 -23 -11 -8 -19 -23 -18 -33 2 -17 -6 -21 -43 -25 -37 -4 -45 -8
-43 -25 1 -10 -3 -28 -9 -38 -7 -15 -5 -24 10 -40 30 -32 39 -75 17 -83 -11
-5 -21 -1 -27 9 -5 10 -13 17 -18 17 -15 0 -12 -30 3 -36 8 -3 24 -19 37 -35
17 -24 19 -34 10 -42 -9 -9 -16 -7 -27 10 -11 16 -25 23 -49 23 -38 0 -39 -2
-22 -29 9 -15 7 -24 -10 -46 -12 -15 -22 -36 -22 -47 0 -10 -10 -22 -24 -28
-13 -5 -26 -15 -29 -22 -5 -15 -67 47 -67 67 0 7 -11 17 -25 23 -17 8 -25 20
-25 36 0 35 -67 107 -94 101 -28 -7 -45 6 -48 35 -2 18 3 25 21 30 24 5 42 30
23 30 -6 0 -14 9 -17 20 -8 26 -22 26 -30 0 -8 -24 -37 -26 -55 -5 -9 11 -27
15 -54 13 -33 -2 -42 -7 -44 -24 -3 -22 42 -51 53 -34 4 6 10 10 15 10 11 0
41 -43 44 -62 4 -26 18 -39 37 -33 14 5 22 0 29 -21 10 -25 11 -26 29 -10 18
16 20 15 40 -17 22 -36 26 -63 12 -86 -6 -9 -11 -10 -15 -2 -4 6 -18 11 -32
11 -19 0 -24 5 -24 24 0 17 -9 29 -30 40 -16 8 -30 11 -30 6 0 -13 -30 -20
-56 -14 -28 7 -31 22 -7 39 29 21 2 39 -92 60 -29 6 -29 7 -10 21 17 13 18 16
5 24 -8 5 -18 10 -22 10 -15 0 -8 43 9 55 17 13 17 14 0 32 -9 11 -17 28 -17
38 0 22 -38 65 -56 65 -18 0 -84 59 -84 75 0 8 -11 22 -25 33 -14 11 -25 27
-25 36 0 25 -9 20 -54 -28 -23 -24 -51 -46 -61 -48 -17 -4 -16 -6 8 -12 31 -9
34 -18 12 -36 -8 -7 -15 -28 -15 -48 0 -33 -22 -72 -42 -72 -5 0 -20 12 -33
27 -31 36 -33 85 -3 113 22 20 22 21 4 52 -19 30 -19 31 3 47 14 11 20 23 15
34 -3 10 -1 17 5 17 6 0 11 -8 11 -19 0 -30 25 -44 65 -37 39 8 49 36 12 36
-33 0 -70 29 -64 51 3 10 -2 27 -10 39 -14 20 -16 20 -39 5 -13 -8 -24 -11
-24 -7 0 19 -69 82 -83 76 -18 -7 -60 48 -55 73 1 10 -1 24 -5 31 -5 7 -5 21
-2 32 8 25 45 27 45 3 1 -16 2 -15 12 2 19 35 61 75 79 75 9 0 19 10 23 22 4
19 8 20 18 10 11 -11 10 -16 -5 -26 -15 -12 -16 -18 -6 -42 7 -16 13 -48 14
-72 3 -50 12 -64 26 -39 6 9 17 17 26 17 14 0 13 4 -5 20 -28 26 -29 60 -3 60
11 0 23 -4 26 -10 3 -5 20 -10 36 -10 17 0 32 -6 35 -15 4 -8 14 -15 23 -15
20 0 47 43 37 58 -8 13 66 24 78 12 16 -16 26 -12 26 9 0 24 12 32 30 21 11
-7 12 -16 1 -50 -10 -33 -10 -45 0 -56 10 -12 9 -18 -5 -32 -17 -16 -19 -16
-33 6 -17 24 -43 30 -43 9 0 -8 11 -19 25 -25 27 -13 49 -56 40 -79 -3 -8 -15
-13 -27 -11 -19 2 -24 10 -26 41 -4 45 -27 46 -27 1 -1 -22 -7 -31 -28 -38
-21 -8 -25 -14 -21 -31 3 -13 -1 -29 -11 -39 -18 -18 -55 -22 -55 -6 0 6 -4
10 -10 10 -17 0 -11 -36 9 -54 18 -17 21 -17 55 -1 20 10 46 31 57 47 14 19
27 27 37 23 8 -3 23 2 33 11 16 14 18 14 29 -6 9 -16 15 -19 23 -11 18 18 55
13 78 -10 18 -18 21 -29 16 -73 -3 -28 -8 -59 -12 -69 -6 -13 -3 -17 14 -15
18 2 26 -7 43 -47 12 -27 26 -53 30 -56 5 -3 12 -19 17 -35 5 -19 15 -30 29
-32 21 -3 22 -1 17 50 -8 69 10 104 49 100 15 -2 34 2 42 9 13 10 12 14 -2 30
-21 23 -10 39 26 39 23 0 27 4 23 20 -3 10 -11 25 -19 31 -22 18 -18 59 5 59
11 0 35 9 54 20 28 16 36 29 41 61 6 36 3 46 -26 82 -44 57 -47 58 -96 52 -40
-6 -43 -5 -53 22 -6 15 -34 48 -62 72 l-52 45 -3 -32 c-2 -18 5 -48 17 -70 11
-20 22 -56 24 -79 4 -36 2 -43 -15 -49 -12 -4 -24 -1 -29 7 -4 7 -11 11 -14 7
-10 -10 23 -66 45 -78 11 -6 20 -19 20 -28 0 -10 14 -35 32 -56 31 -38 31 -39
16 -80 -13 -37 -18 -41 -49 -41 l-34 0 0 56 c0 44 -6 63 -28 96 -15 22 -39 45
-53 51 -44 21 -57 90 -24 132 11 14 20 40 20 58 0 19 9 65 21 103 21 69 39 85
57 52 9 -14 10 -14 17 6 5 17 1 29 -16 47 l-23 25 -18 -23 c-15 -21 -17 -21
-24 -5 -10 27 3 120 19 132 84 63 83 62 65 93 -10 17 -14 33 -8 38 4 5 10 22
12 39 2 19 11 34 26 41 41 20 45 30 20 50 -32 26 -68 74 -68 91 0 7 10 17 23
22 89 37 87 35 87 67 0 23 -7 36 -25 48 -34 22 -59 13 -80 -29 -9 -19 -20 -35
-24 -35 -5 0 -11 -19 -14 -42 -4 -28 -14 -50 -30 -64 -18 -16 -23 -28 -19 -52
4 -30 25 -48 43 -36 5 3 9 -2 9 -10 0 -9 -6 -16 -14 -16 -7 0 -20 -7 -27 -16
-11 -13 -10 -17 4 -25 15 -9 15 -12 1 -34 -8 -12 -26 -26 -40 -29 -17 -5 -24
-13 -24 -31 0 -13 -5 -27 -10 -30 -16 -10 -40 14 -40 39 0 12 -5 27 -11 33 -9
9 -8 18 5 37 23 36 21 56 -6 53 -15 -1 -23 4 -26 18 -3 11 -13 31 -23 44 -23
28 -24 62 -5 104 8 18 18 46 23 62 5 17 20 35 33 42 12 6 26 17 30 23 11 17
48 3 55 -20 9 -27 -2 -40 -31 -40 -20 0 -24 -5 -24 -28 0 -15 -5 -33 -11 -39
-7 -7 -9 -19 -5 -29 6 -16 8 -15 27 4 11 12 24 22 29 22 6 0 10 9 10 19 0 10
7 21 15 25 8 3 15 14 15 24 0 11 7 25 15 32 8 7 15 23 15 37 0 29 24 40 46 22
14 -12 19 -11 31 8 8 12 23 32 34 44 19 23 27 93 10 103 -10 6 -31 -35 -46
-89 -8 -32 -14 -39 -30 -37 -11 2 -29 4 -39 5 -30 3 -30 24 -2 52 22 21 24 30
15 46 -8 15 -17 19 -37 14 -23 -5 -29 -1 -40 23 -9 21 -10 37 -3 55 12 32 0
43 -28 25 -47 -29 -48 30 -2 80 31 31 1 29 -37 -3 -17 -14 -37 -25 -45 -25 -9
0 -20 -8 -26 -17 -9 -16 -13 -15 -43 13 -62 57 -67 59 -82 38 -12 -16 -12 -23
0 -46 18 -35 18 -47 -3 -70 -14 -16 -15 -23 -3 -61 7 -23 16 -53 19 -67 6 -18
16 -26 37 -28 16 -2 33 -7 38 -12 5 -5 10 -44 11 -87 2 -66 0 -80 -16 -91 -11
-8 -19 -25 -19 -42 0 -17 -7 -33 -17 -39 -17 -9 -16 -11 5 -26 12 -9 22 -21
22 -27 0 -7 9 -21 20 -33 25 -27 18 -53 -19 -66 -23 -9 -30 -6 -58 25 -22 24
-33 46 -33 66 0 22 -6 33 -22 39 -13 5 -36 21 -51 35 -24 22 -27 29 -17 41 16
19 45 19 64 0 8 -8 19 -15 25 -15 16 0 13 17 -4 24 -8 3 -15 14 -15 25 0 10
-7 21 -15 25 -24 9 -17 33 15 56 l30 21 0 -25 c0 -43 23 -42 48 1 18 34 15 44
-13 37 -19 -5 -25 -2 -25 10 0 9 -7 16 -15 16 -8 0 -15 -4 -15 -8 0 -5 -8 -17
-18 -28 -27 -29 -98 -22 -106 11 -3 12 -14 25 -23 29 -25 8 -57 29 -66 44 -13
19 -27 14 -27 -10 0 -13 -9 -34 -19 -47 -14 -18 -24 -22 -43 -18 -40 10 -44
47 -9 78 16 15 32 38 36 50 11 33 37 68 52 69 6 0 14 -14 18 -31 l7 -31 27 26
c32 31 51 33 51 6 0 -29 12 -25 49 17 42 47 54 78 37 92 -9 7 -22 4 -47 -14
-44 -31 -126 -38 -143 -13 -16 26 4 40 64 46 28 2 53 9 56 13 3 5 16 9 30 9
17 0 27 8 34 25 7 19 17 25 39 25 16 0 31 6 35 15 3 8 15 15 26 15 26 0 80
-27 80 -40 0 -18 36 -11 55 10 14 16 16 23 7 32 -18 18 -14 39 6 36 12 -2 16
3 15 17 -1 11 -4 43 -7 70 -5 63 -14 85 -35 85 -9 0 -28 16 -44 35 -15 19 -48
46 -72 61 -25 14 -45 30 -45 35 0 16 77 10 91 -7z m-312 -50 c12 -15 21 -33
21 -40 0 -22 16 -16 34 11 17 26 45 32 63 14 7 -7 12 -3 17 15 9 35 25 33 39
-4 7 -18 19 -30 30 -30 20 0 32 -23 23 -45 -5 -13 -9 -13 -26 -3 -17 11 -22
11 -29 -1 -10 -15 -63 -37 -131 -53 -36 -9 -46 -8 -54 4 -7 12 -16 13 -43 5
-36 -11 -54 -4 -35 15 7 7 12 18 12 26 0 11 -11 13 -52 8 -64 -8 -112 4 -116
28 -3 15 1 17 25 12 22 -5 36 -1 56 14 15 12 32 18 38 15 5 -4 18 0 27 8 39
34 75 34 101 1z m176 -144 c4 -6 13 -5 25 2 14 9 28 9 62 -1 97 -29 99 -31 73
-81 -16 -32 -60 -49 -77 -32 -6 6 -23 9 -38 6 -16 -4 -30 0 -36 8 -16 20 -43
96 -36 102 8 9 20 7 27 -4z m-106 -37 c35 -20 44 -43 39 -94 -3 -38 -21 -46
-26 -11 -4 24 -39 31 -60 10 -8 -8 -15 -8 -27 2 -18 15 -20 56 -2 67 8 4 16
16 20 26 3 9 11 17 16 17 5 0 23 -8 40 -17z m-129 -143 c27 -26 29 -32 18 -50
-7 -11 -23 -20 -35 -20 -12 0 -25 -5 -28 -10 -5 -8 -11 -7 -21 1 -14 12 -20
90 -7 102 14 15 44 6 73 -23z m839 -69 c22 -31 19 -41 -15 -41 -15 0 -24 8
-28 25 -13 50 12 60 43 16z m-369 -61 c0 -8 13 -29 29 -45 52 -56 65 -95 30
-95 -28 0 -59 18 -59 34 0 7 -16 34 -35 59 -29 38 -34 50 -26 66 9 16 14 18
36 8 14 -7 25 -19 25 -27z m-61 -44 c23 -24 32 -40 27 -52 -6 -16 -8 -16 -25
0 -17 16 -19 15 -25 -15 -10 -52 -31 -29 -34 39 -4 74 8 79 57 28z m66 -104
c40 -36 59 -95 20 -62 -14 11 -17 10 -22 -8 -5 -22 -23 -31 -23 -12 0 5 -10
18 -21 29 -16 15 -20 27 -15 45 7 30 32 33 61 8z m77 -34 c-9 -9 -12 -7 -12
12 0 19 3 21 12 12 9 -9 9 -15 0 -24z m704 -18 c20 -27 41 -50 47 -50 16 -1
57 -36 57 -49 0 -14 -13 -14 -26 -1 -6 6 -10 -5 -12 -33 -6 -125 -16 -180 -38
-198 -8 -6 -14 -24 -14 -39 0 -19 -8 -33 -25 -44 -14 -9 -25 -25 -25 -36 0
-22 -29 -27 -61 -10 -27 15 -24 32 11 65 21 20 28 35 24 50 -4 15 3 32 21 53
24 29 26 36 19 89 -8 67 -28 119 -57 151 -16 17 -18 25 -9 34 7 7 12 22 12 33
0 53 32 46 76 -15z m-1358 -32 c2 -11 -10 -24 -37 -37 -46 -24 -49 -30 -50
-138 -1 -81 -19 -153 -40 -153 -17 0 -70 34 -76 49 -3 8 2 25 11 38 11 18 13
28 5 36 -17 17 -13 37 7 37 30 0 32 10 10 41 l-21 28 29 42 c16 23 43 51 59
61 37 23 98 21 103 -4z m1532 -33 c32 -16 39 -39 16 -48 -15 -6 -69 47 -59 57
9 8 10 8 43 -9z m-1320 -20 c7 -9 10 -27 7 -44 -4 -20 -2 -31 8 -35 21 -8 19
-36 -2 -36 -26 -1 -63 -35 -63 -58 0 -10 -9 -27 -20 -37 -11 -10 -20 -26 -20
-35 0 -10 -7 -20 -15 -24 -10 -3 -15 -19 -15 -45 0 -31 -5 -44 -23 -56 -13 -8
-29 -27 -35 -41 -10 -21 -15 -23 -31 -14 -11 5 -37 10 -59 10 -26 0 -45 6 -57
20 -27 29 -13 50 35 50 40 0 40 0 25 23 -13 20 -13 26 -1 43 14 18 15 18 45 1
18 -11 40 -16 51 -12 18 6 17 8 -12 37 -29 28 -30 32 -19 68 6 21 18 43 26 50
8 7 15 19 15 26 0 18 71 94 88 94 7 0 15 7 18 15 8 19 38 19 54 0z m68 -232
c5 -10 7 -23 5 -29 -7 -22 38 -84 66 -90 14 -3 33 -9 41 -13 8 -4 37 -9 64
-10 27 -1 51 -2 52 -4 1 -1 6 -30 9 -64 7 -58 6 -63 -18 -85 -23 -21 -24 -26
-11 -48 21 -39 17 -52 -13 -48 -20 2 -29 10 -34 31 -4 15 -19 37 -33 48 -35
27 -35 66 -1 75 27 7 35 24 11 24 -8 0 -16 7 -20 15 -7 20 -27 19 -71 -2 -29
-14 -40 -15 -55 -5 -11 7 -26 12 -34 12 -22 0 -55 52 -57 91 -4 48 43 119 78
119 7 0 16 -8 21 -17z m201 -97 c9 -10 8 -16 -4 -26 -19 -15 -47 3 -38 26 7
18 27 18 42 0z m-704 -107 c17 -52 -50 -95 -75 -48 -9 16 -8 26 5 45 20 31 61
33 70 3z m175 -19 c12 -7 12 -12 2 -22 -17 -17 -15 -53 3 -68 8 -7 15 -28 15
-46 0 -34 0 -34 38 -29 31 5 42 2 64 -20 36 -34 45 -69 24 -99 -21 -33 -53
-42 -75 -22 -25 22 -93 20 -133 -4 -35 -21 -83 -26 -107 -11 -19 12 -8 50 26
85 15 16 36 41 45 55 17 25 17 27 -3 42 -18 14 -20 19 -9 38 6 13 9 34 6 47
-12 46 59 83 104 54z m640 -9 c0 -6 14 -25 31 -43 27 -29 30 -38 25 -76 -6
-47 -22 -82 -36 -82 -32 0 -58 98 -30 115 15 9 12 43 -5 53 -10 5 -13 15 -9
25 7 18 24 23 24 8z m-369 -17 c34 -17 37 -49 6 -68 -15 -9 -23 -5 -47 24 -21
25 -26 38 -18 47 14 17 23 16 59 -3z m1115 -41 c3 -10 10 -25 15 -33 5 -8 13
-24 18 -35 5 -12 16 -27 25 -34 9 -7 16 -22 16 -33 0 -10 7 -21 16 -25 17 -6
54 -83 54 -113 0 -10 9 -39 19 -63 11 -25 23 -66 26 -91 7 -44 6 -46 -18 -46
-13 0 -30 7 -37 15 -7 8 -23 15 -36 15 -29 0 -32 28 -9 64 15 22 14 27 -4 57
-12 19 -21 48 -21 65 0 24 -5 33 -21 37 -19 5 -21 11 -16 41 3 20 1 38 -4 41
-5 4 -9 17 -9 31 0 13 -4 24 -10 24 -5 0 -12 11 -16 25 -3 14 -10 25 -15 25
-5 0 -9 11 -9 25 0 29 28 35 36 8z m-1622 -48 c17 -27 22 -65 7 -65 -5 0 -11
-10 -13 -22 -4 -30 -68 -40 -68 -12 0 10 7 26 17 36 13 15 14 24 6 53 -10 33
-10 35 12 35 13 0 29 -10 39 -25z m410 9 c18 -7 21 -39 5 -50 -16 -9 -43 21
-36 40 7 18 9 18 31 10z m1155 -18 c15 -16 21 -31 17 -44 -4 -11 0 -24 8 -31
20 -17 0 -61 -27 -61 -17 0 -19 5 -14 46 4 37 1 49 -15 64 -12 11 -18 26 -15
34 9 22 20 20 46 -8z m-896 -16 c19 -16 39 -30 45 -30 16 0 42 -47 36 -64 -11
-28 -69 -56 -115 -56 -46 0 -89 21 -89 44 0 8 -7 16 -15 20 -18 7 -20 42 -2
53 7 4 20 20 30 36 24 37 66 36 110 -3z m915 -259 c23 -27 42 -56 42 -65 0 -8
9 -21 21 -29 16 -12 20 -23 17 -53 -3 -36 -6 -39 -36 -42 -27 -3 -35 2 -50 27
-9 17 -20 31 -24 31 -5 0 -8 16 -8 35 0 29 -5 37 -25 45 -23 9 -25 13 -19 47
12 70 26 71 82 4z m310 7 c7 -7 12 -22 12 -34 0 -15 9 -25 29 -32 22 -8 30
-18 34 -44 3 -18 8 -43 12 -54 10 -31 -19 -38 -66 -17 -26 11 -39 23 -39 37 0
11 -6 27 -14 35 -8 9 -18 37 -24 63 -9 44 -8 47 12 51 11 2 23 5 27 6 3 0 10
-4 17 -11z m-1684 -51 c14 -10 19 -25 18 -51 -1 -31 2 -36 21 -36 28 0 67 -26
67 -45 0 -16 -39 -41 -55 -36 -5 2 -26 4 -45 5 -19 1 -42 6 -51 10 -21 9 -99
-48 -99 -74 0 -10 10 -28 21 -39 16 -14 20 -28 16 -48 -3 -18 1 -35 14 -52 23
-29 24 -45 3 -65 -20 -21 -63 -20 -86 1 -19 17 -25 68 -8 78 14 9 2 25 -18 25
-10 0 -22 -13 -29 -30 -10 -26 -8 -35 16 -70 15 -22 37 -47 49 -56 27 -19 29
-54 3 -54 -10 0 -24 -7 -31 -15 -7 -8 -26 -15 -42 -15 -29 0 -29 1 -23 44 5
29 3 46 -5 51 -8 5 -6 11 6 20 19 13 13 45 -9 45 -7 0 -22 -7 -33 -15 -18 -14
-18 -16 -1 -29 26 -20 21 -38 -18 -63 -41 -27 -44 -27 -94 -7 -51 20 -71 62
-47 99 9 13 29 28 44 31 28 7 91 70 92 92 0 19 -27 14 -44 -9 -15 -22 -46 -23
-53 -2 -2 6 5 21 16 32 12 12 21 28 21 36 0 23 41 38 97 36 50 -2 54 0 73 31
10 18 22 45 25 60 5 22 12 28 32 28 15 0 23 5 20 13 -2 6 -8 11 -13 10 -5 -1
-16 -3 -24 -5 -9 -2 -16 6 -18 19 -4 25 40 53 83 53 15 0 33 7 41 15 16 15 28
12 68 -18z m1040 -9 c22 -30 20 -37 -17 -80 -30 -36 -33 -37 -57 -23 -14 8
-35 19 -47 24 -34 16 -30 47 8 55 17 3 42 15 56 26 32 25 38 25 57 -2z m812
-22 c8 -14 14 -35 12 -48 -2 -15 4 -26 17 -33 15 -8 21 -22 23 -63 2 -37 7
-52 18 -52 7 0 14 -9 14 -20 0 -28 -20 -25 -47 7 -13 14 -26 23 -30 19 -4 -4
-1 -11 6 -15 24 -15 3 -32 -24 -19 -37 17 -43 59 -19 140 3 10 -3 19 -16 23
-38 12 -20 83 22 85 4 0 15 -11 24 -24z m-2076 -34 c0 -4 -7 -17 -15 -29 -8
-12 -17 -32 -19 -45 -3 -20 -9 -23 -41 -21 -46 3 -49 6 -42 35 9 34 117 89
117 60z m-360 -52 c0 -6 11 -16 25 -22 13 -6 27 -18 30 -27 3 -9 20 -23 38
-31 25 -12 32 -21 30 -40 -2 -26 -3 -34 -2 -84 1 -45 -15 -53 -51 -22 -42 35
-52 33 -45 -8 6 -28 4 -34 -14 -39 -12 -3 -39 4 -61 14 -32 16 -40 25 -40 47
0 41 15 59 34 43 11 -9 16 -10 16 -2 0 17 40 13 46 -4 8 -19 24 -19 24 0 0 8
9 19 20 25 24 13 26 30 4 30 -48 0 -108 86 -82 118 13 15 28 16 28 2z m198
-70 c-26 -36 -48 -39 -48 -7 0 31 7 37 42 37 l29 0 -23 -30z m594 18 c19 -16
50 -106 38 -113 -5 -3 -11 -1 -15 5 -3 5 -26 10 -51 10 -53 0 -62 -25 -14 -41
16 -6 32 -20 36 -32 l7 -22 10 23 c12 26 32 29 41 6 15 -40 -46 -114 -94 -114
-28 0 -36 -25 -17 -54 24 -35 3 -59 -54 -60 -41 -1 -44 1 -47 27 -2 19 3 33
14 41 13 10 16 22 11 54 -5 40 -4 42 26 50 28 7 32 13 35 45 2 28 -1 37 -12
37 -8 0 -16 -10 -18 -22 -2 -13 -11 -24 -23 -27 -11 -2 -24 -10 -30 -18 -15
-20 -66 -9 -91 18 -18 20 -18 21 -1 34 25 18 22 45 -7 45 -35 0 -49 21 -31 47
12 18 20 20 43 13 16 -4 35 -4 43 0 8 4 30 10 51 14 20 4 38 13 41 21 5 12 27
19 78 24 8 0 22 -5 31 -11z m1589 -80 c24 -29 24 -39 -1 -66 -28 -29 -37 -28
-45 8 -4 16 -14 34 -22 39 -24 13 -8 41 23 41 15 0 34 -10 45 -22z m-2517 -68
c-1 -25 -4 -56 -9 -69 -9 -29 7 -47 24 -27 10 12 18 13 32 5 11 -5 34 -9 52
-7 50 5 47 -24 -7 -64 -25 -18 -48 -40 -51 -49 -6 -17 -60 -33 -76 -23 -15 9
-10 44 6 50 8 4 15 15 15 25 0 24 -2 24 -42 -1 -45 -27 -50 -26 -46 18 3 36 2
37 -36 42 -58 7 -58 28 1 32 l47 3 14 50 c16 54 26 66 57 63 17 -3 20 -10 19
-48z m2615 16 c10 -12 8 -17 -9 -26 -28 -15 -57 5 -39 26 15 18 33 18 48 0z
m-77 -82 c14 -31 53 -32 61 -3 3 12 10 18 16 14 16 -9 13 -35 -4 -41 -16 -7
-20 -51 -7 -72 13 -20 47 24 47 62 0 24 4 31 20 31 14 0 20 -7 21 -25 1 -14 6
-36 13 -49 20 -36 8 -50 -38 -44 -32 4 -41 2 -41 -9 0 -9 7 -21 15 -28 21 -17
19 -36 -7 -62 -15 -15 -32 -21 -51 -19 -29 3 -29 2 -23 -36 4 -21 10 -48 13
-60 6 -25 -9 -29 -54 -17 -18 5 -21 11 -16 35 5 28 4 29 -25 23 -30 -6 -31 -5
-34 37 -3 42 -4 44 -31 41 -25 -3 -28 -1 -25 20 3 20 9 23 43 23 33 0 42 -4
53 -27 16 -35 36 -35 79 -2 35 26 44 61 18 70 -8 4 -15 11 -15 16 0 11 -40 47
-52 48 -15 0 -8 -27 12 -45 23 -21 26 -48 7 -64 -18 -14 -27 -4 -27 31 0 30
-17 38 -26 13 -8 -21 -17 -19 -60 10 -20 14 -50 25 -65 25 -24 0 -29 4 -29 25
0 20 5 25 25 25 14 0 33 -9 42 -20 21 -24 60 -26 85 -3 21 19 23 36 6 62 -6
10 -8 25 -5 34 8 22 46 10 59 -19z m-2338 -31 c9 -23 -12 -43 -24 -23 -5 8
-10 21 -10 28 0 18 27 15 34 -5z m1083 -15 c41 -21 80 -68 67 -81 -3 -3 -1
-15 6 -27 13 -24 5 -60 -13 -60 -20 0 -37 -37 -31 -68 4 -20 1 -34 -11 -45
-23 -24 -49 -21 -83 8 -17 14 -34 25 -39 25 -14 0 7 202 25 238 9 17 21 32 26
32 5 0 29 -10 53 -22z m-532 -22 c17 -12 17 -14 2 -37 -10 -13 -17 -32 -17
-43 0 -11 -7 -28 -16 -38 -16 -16 -16 -18 0 -24 9 -3 16 -11 16 -18 0 -6 11
-16 25 -22 22 -11 24 -10 22 10 -2 16 3 21 23 21 31 0 39 -34 16 -67 -9 -12
-16 -33 -16 -46 0 -35 -24 -36 -58 -3 -17 17 -40 31 -52 31 -36 0 -80 32 -80
57 0 27 -15 30 -24 6 -5 -11 -1 -22 9 -29 11 -8 15 -23 13 -46 -3 -29 -6 -33
-28 -30 -39 4 -73 49 -66 86 9 43 37 67 98 87 40 12 54 21 56 38 2 11 -1 21
-7 21 -22 0 -10 30 17 44 34 19 44 19 67 2z m-550 -48 c14 -6 25 -17 25 -23 0
-7 3 -26 6 -42 5 -26 2 -31 -33 -47 -37 -16 -42 -16 -81 -1 -23 10 -42 21 -42
26 0 22 44 79 68 88 15 5 28 10 29 10 1 1 14 -4 28 -11z m1908 -14 c8 -9 -13
-52 -29 -58 -17 -6 -36 27 -28 48 6 16 45 22 57 10z m-2212 -36 c27 -18 49
-35 49 -38 0 -3 -20 -6 -44 -7 -24 -1 -59 -11 -77 -22 -76 -46 -94 -9 -28 57
22 23 43 42 45 42 3 0 27 -15 55 -32z m403 -24 c9 -3 16 -14 16 -23 1 -21 24
-51 40 -51 7 0 18 7 24 16 14 19 40 10 60 -21 15 -22 14 -24 -5 -30 -16 -5
-19 -12 -15 -31 5 -19 1 -26 -23 -39 -39 -20 -38 -20 -46 16 -6 28 -8 29 -24
15 -10 -9 -21 -16 -25 -16 -4 0 -19 -9 -33 -20 -31 -24 -93 -27 -93 -5 0 17
35 55 50 55 6 0 10 23 10 51 0 76 19 100 64 83z m630 -26 c20 -39 20 -47 -1
-70 -10 -11 -22 -34 -28 -51 -14 -43 -51 -50 -65 -11 -9 24 -7 31 16 55 18 19
28 41 30 66 2 21 3 39 3 41 1 1 7 2 15 2 8 0 22 -14 30 -32z m161 22 c3 -5 3
-15 -1 -21 -4 -7 -8 -27 -9 -45 -1 -25 5 -40 24 -57 14 -14 40 -41 56 -61 17
-21 40 -41 53 -46 38 -16 24 -30 -28 -30 -36 0 -52 4 -56 15 -4 8 -12 15 -19
15 -6 0 -31 13 -53 30 -23 16 -53 30 -66 30 -23 0 -36 16 -36 46 0 8 9 14 19
14 14 0 23 11 31 38 7 20 24 47 38 59 30 25 38 28 47 13z m65 -26 c0 -24 -4
-34 -12 -32 -24 8 -22 68 2 68 5 0 10 -16 10 -36z m994 17 c3 -4 17 -6 31 -3
18 3 25 0 25 -11 0 -8 7 -20 15 -27 18 -15 12 -26 -27 -46 -22 -12 -33 -13
-42 -4 -8 8 -7 13 4 20 21 13 -16 53 -42 44 -17 -5 -18 -4 -6 15 13 22 33 27
42 12z m-790 -74 c-7 -18 -24 -23 -24 -8 0 22 13 42 22 33 5 -5 6 -16 2 -25z
m-1235 -7 c53 -26 59 -42 30 -85 -28 -40 -34 -42 -49 -15 -7 13 -21 20 -39 20
-35 0 -81 35 -81 60 0 42 71 52 139 20z m2532 10 c24 0 26 -45 3 -54 -20 -8
-64 19 -64 38 0 18 12 27 28 21 7 -3 22 -5 33 -5z m-541 -34 c0 -14 -5 -28
-10 -31 -13 -8 -24 20 -16 40 9 24 26 17 26 -9z m-627 -22 c5 -27 0 -34 -24
-34 -10 0 -24 -8 -31 -19 -29 -40 -105 -63 -138 -40 -13 8 -10 13 15 32 16 12
43 36 60 52 23 23 40 31 72 32 36 1 42 -2 46 -23z m987 -65 c0 -38 -24 -35
-28 4 -2 19 1 27 12 27 11 0 16 -10 16 -31z m-1625 1 c4 -6 1 -18 -6 -27 -8
-8 -12 -28 -11 -44 5 -43 -25 -50 -54 -13 -13 16 -33 29 -46 29 -30 0 -33 40
-3 41 11 0 27 3 35 7 16 6 48 14 67 16 6 0 15 -4 18 -9z m1201 -2 c4 -6 -2
-19 -14 -29 -12 -9 -22 -24 -22 -33 0 -9 -2 -16 -4 -16 -2 0 -12 -3 -22 -7
-15 -5 -16 -2 -10 33 5 21 12 45 18 52 13 15 45 16 54 0z m-1972 -7 c11 -17
-4 -36 -46 -59 -68 -36 -78 6 -12 48 33 21 50 24 58 11z"/>
<path d="M4705 2701 c-7 -12 12 -24 25 -16 11 7 4 25 -10 25 -5 0 -11 -4 -15
-9z"/>
<path d="M4835 2589 c-9 -13 -7 -15 33 -22 35 -7 43 6 13 23 -25 13 -38 13
-46 -1z"/>
<path d="M4950 2522 c0 -4 14 -16 30 -25 26 -16 31 -16 36 -3 3 8 3 20 -1 26
-7 12 -65 14 -65 2z"/>
<path d="M4936 2445 c-11 -8 -17 -18 -13 -21 10 -11 37 4 37 21 0 18 0 18 -24
0z"/>
<path d="M4790 2230 c0 -10 10 -29 23 -41 l22 -21 -22 -15 c-23 -16 -29 -53
-17 -100 9 -31 59 -32 75 -1 9 18 8 24 -6 34 -13 10 -14 16 -5 34 8 16 8 25 0
35 -6 7 -10 17 -9 21 4 17 -20 61 -36 68 -24 9 -25 8 -25 -14z"/>
<path d="M4219 2187 c-15 -11 -49 -68 -49 -82 0 -7 31 1 73 18 32 14 44 42 27
62 -15 18 -30 18 -51 2z"/>
<path d="M4802 1534 c1 -9 9 -19 16 -22 9 -3 13 2 10 14 -1 9 -9 19 -16 22 -9
3 -13 -2 -10 -14z"/>
<path d="M4875 1471 c-6 -5 -21 -11 -35 -13 -39 -5 -32 -34 7 -30 17 2 34 -2
38 -7 18 -30 34 5 19 43 -7 18 -16 20 -29 7z"/>
<path d="M4766 1391 c-4 -6 2 -18 14 -28 11 -10 20 -23 20 -31 0 -7 3 -11 8
-9 4 3 7 20 7 39 0 26 -4 34 -22 36 -11 2 -24 -1 -27 -7z"/>
<path d="M5030 1351 c0 -28 19 -36 35 -15 16 22 11 34 -16 34 -12 0 -19 -7
-19 -19z"/>
<path d="M4940 1339 c0 -11 5 -17 10 -14 6 3 10 13 10 21 0 8 -4 14 -10 14 -5
0 -10 -9 -10 -21z"/>
<path d="M4276 1115 c-3 -8 -12 -15 -20 -15 -26 0 -31 -46 -7 -71 19 -21 21
-21 46 -5 26 17 31 31 15 41 -5 3 -10 19 -10 36 0 31 -14 39 -24 14z"/>
<path d="M4437 823 c-17 -17 -2 -43 54 -96 34 -31 65 -57 69 -57 13 0 17 23
12 63 -3 31 -8 37 -27 37 -13 0 -37 14 -53 30 -31 30 -43 36 -55 23z"/>
<path d="M4890 806 c0 -13 -3 -31 -6 -40 -4 -11 2 -19 19 -25 15 -6 27 -19 29
-32 4 -32 23 -34 36 -4 15 33 16 32 -8 38 -16 4 -20 14 -20 46 0 37 -2 41 -25
41 -20 0 -25 -5 -25 -24z"/>
<path d="M4614 695 c-8 -20 3 -48 16 -40 13 8 13 55 0 55 -6 0 -13 -7 -16 -15z"/>
<path d="M4875 666 c-17 -40 -40 -47 -50 -15 -4 11 -12 18 -18 16 -18 -5 -25
-60 -11 -77 6 -8 14 -32 18 -52 6 -31 4 -38 -9 -38 -19 0 -20 -16 -1 -23 8 -3
20 1 27 9 19 23 53 13 59 -17 5 -27 83 -119 100 -119 6 0 10 13 10 29 0 23 -6
30 -26 35 -18 5 -24 12 -20 22 3 9 6 33 6 55 0 51 23 52 43 2 8 -21 25 -47 36
-57 22 -20 22 -20 28 2 3 12 14 24 24 27 26 9 24 21 -10 54 -15 15 -30 34 -33
42 -4 12 -7 12 -22 0 -24 -20 -40 -2 -27 32 13 34 47 53 67 36 9 -7 14 -8 14
-1 0 6 -4 14 -10 17 -5 3 -10 17 -10 31 0 13 -3 24 -7 24 -18 -1 -53 -40 -53
-59 0 -14 -6 -21 -19 -21 -26 0 -34 -15 -16 -30 11 -9 11 -17 3 -35 -14 -30
-28 -35 -73 -28 -39 6 -55 27 -37 45 8 8 15 8 27 -2 8 -7 15 -11 15 -9 1 2 3
28 6 57 2 29 5 57 7 63 1 7 -4 14 -11 16 -7 3 -19 -10 -27 -31z"/>
<path d="M4950 332 c0 -4 8 -24 19 -45 14 -28 20 -33 24 -19 2 9 8 25 12 35 5
13 2 17 -14 17 -12 0 -21 5 -21 10 0 6 -4 10 -10 10 -5 0 -10 -4 -10 -8z"/>
<path d="M4204 1349 c-16 -17 -16 -22 -4 -29 30 -19 70 -7 70 20 0 16 -18 30
-39 30 -4 0 -16 -9 -27 -21z"/>
<path d="M3594 826 c-3 -8 -1 -23 5 -33 9 -15 10 -13 11 15 0 34 -7 42 -16 18z"/>
</g>
</svg>
