<?xml version="1.0" encoding="UTF-8" standalone="no"?>
<!DOCTYPE svg PUBLIC "-//W3C//DTD SVG 20010904//EN" "http://www.w3.org/TR/2001/REC-SVG-20010904/DTD/svg10.dtd">
<svg version="1.0" xmlns="http://www.w3.org/2000/svg" width="240.000000pt" height="240.000000pt" viewBox="0 0 240.000000 240.000000" preserveAspectRatio="xMidYMid meet">
<g transform="translate(0.000000,240.000000) scale(0.100000,-0.100000)" fill="#000000" stroke="none">
<path d="M0 1200 l0 -1200 1200 0 1200 0 0 1200 0 1200 -1200 0 -1200 0 0 -1200z m2014 1089 c62 -23 94 -55 135 -138 63 -126 81 -284 41 -365 -23 -48 -84 -90 -153 -106 -46 -10 -49 -9 -82 22 l-35 31 38 23 c54 32 92 93 92 146 0 120 -124 177 -233 108 -44 -27 -51 -38 -93 -128 -4 -9 -34 13 -34 27 0 9 -7 25 -15 35 -20 26 -19 110 1 167 62 171 185 236 338 178z m-1471 -90 c97 -27 196 -183 173 -274 -5 -20 -81 -85 -100 -85 -3 0 -6 13 -6 28 0 48 -71 102 -133 102 -43 0 -91 -49 -107 -111 -19 -68 7 -147 51 -156 l28 -5 -25 -34 c-23 -30 -28 -32 -52 -22 -41 17 -79 64 -103 126 -18 49 -20 71 -16 152 5 76 3 98 -9 112 -14 14 -14 19 -1 45 20 38 73 86 122 111 45 24 118 28 178 11z m1045 -293 c143 -72 230 -133 322 -226 105 -106 148 -175 194 -313 41 -122 46 -202 20 -283 -20 -57 -73 -128 -114 -149 -32 -17 -80 -20 -80 -6 0 5 -32 17 -70 26 -39 9 -81 26 -95 37 -14 11 -32 21 -40 22 -7 1 -36 23 -62 48 -27 25 -59 51 -71 57 -12 6 -22 18 -22 26 0 7 -27 28 -61 46 -34 18 -63 39 -66 46 -3 8 -19 21 -35 29 -23 12 -33 13 -44 3 -20 -16 -17 -52 6 -82 27 -34 26 -42 -14 -88 -18 -22 -48 -68 -65 -103 -27 -55 -31 -74 -31 -145 0 -61 5 -91 20 -120 l19 -38 -43 -6 c-24 -4 -81 -4 -128 0 l-85 6 23 41 c51 89 23 253 -55 318 -17 15 -31 31 -31 37 0 5 19 19 43 29 74 33 87 114 23 143 -20 10 -39 3 -137 -47 -117 -60 -224 -127 -271 -171 -15 -14 -46 -29 -70 -34 -194 -36 -271 191 -152 450 38 83 40 97 19 121 -14 15 -12 21 14 57 60 83 272 238 339 248 21 3 71 11 112 19 71 13 77 12 115 -8 61 -33 86 -77 112 -201 13 -62 37 -53 44 16 8 74 67 182 112 206 108 56 177 53 305 -11z m10 -865 c34 -23 72 -98 72 -138 0 -43 -30 -83 -92 -123 -110 -71 -186 -65 -231 19 -42 76 -35 120 30 192 57 64 90 81 144 76 26 -2 60 -13 77 -26z m-676 -27 c76 -39 115 -167 68 -227 -28 -36 -90 -67 -133 -67 -24 0 -44 9 -69 33 -59 53 -75 144 -39 216 34 65 99 82 173 45z m914 -149 c33 -13 34 -16 28 -53 -4 -28 -2 -43 10 -54 14 -15 14 -24 1 -103 -19 -109 -33 -141 -95 -225 -28 -37 -50 -72 -50 -77 0 -14 -100 -107 -157 -145 -89 -60 -309 -107 -523 -111 -104 -2 -106 -2 -184 37 -122 61 -188 134 -192 213 -4 70 -42 304 -60 368 -17 58 -22 93 -18 108 8 27 21 20 28 -15 3 -17 17 -51 31 -74 34 -58 150 -118 218 -113 42 4 44 3 31 -16 -21 -34 -54 -137 -54 -172 0 -49 42 -108 102 -143 48 -28 60 -30 118 -27 89 6 209 25 305 48 78 20 137 56 187 114 24 28 22 81 -6 141 l-24 52 26 5 c38 8 111 63 125 95 6 15 22 41 35 59 13 17 28 48 33 67 11 41 28 45 85 21z"/>
<path d="M1477 989 c-9 -5 -28 -20 -42 -33 -55 -51 -15 -136 64 -136 34 0 44 6 70 37 38 46 40 85 6 118 -25 26 -67 32 -98 14z"/>
<path d="M823 950 c-12 -5 -26 -18 -32 -29 -13 -24 -4 -80 17 -103 19 -23 78 -23 120 -2 42 21 42 57 1 107 -32 38 -60 46 -106 27z"/>
<path d="M1284 269 c-17 -5 -75 -12 -129 -16 -104 -8 -131 -24 -78 -44 25 -10 115 -8 196 4 39 6 73 40 55 54 -8 6 -25 7 -44 2z"/>
</g>
</svg>